solid no_name
facet normal -0.978213523748353 -0.207601305284486 -8.89361268622029e-08
   outer loop
      vertex -49.4269999999999 8.95500000000026 -3.03540079704678e-06
      vertex -48.9930006 6.90999940000029 7.99999684377418
      vertex -49.4270006 8.95499940000028 7.99999696459917
   endloop
endfacet
facet normal -0.978213523748353 -0.207601305284486 -8.89361268622029e-08
   outer loop
      vertex -48.9930006 6.90999940000029 7.99999684377418
      vertex -49.4269999999999 8.95500000000026 -3.03540079704678e-06
      vertex -48.9929999999999 6.91000000000027 -3.15622578453967e-06
   endloop
endfacet
facet normal 7.50000156276216e-08 7.49999971524395e-08 -0.999999999999994
   outer loop
      vertex -49.4269999999999 8.95500000000026 -3.03540079704678e-06
      vertex -32.4399999999999 7.05200000000017 -1.90410052627321e-06
      vertex -48.9929999999999 6.91000000000027 -3.15622578453967e-06
   endloop
endfacet
facet normal 7.50000156276216e-08 7.49999971524395e-08 -0.999999999999994
   outer loop
      vertex -32.4399999999999 7.05200000000017 -1.90410052627321e-06
      vertex -49.4269999999999 8.95500000000026 -3.03540079704678e-06
      vertex -33.99 8.17800000000017 -1.93590055369564e-06
   endloop
endfacet
facet normal 7.50000156276216e-08 7.49999971524395e-08 -0.999999999999994
   outer loop
      vertex -33.99 8.17800000000017 -1.93590055369564e-06
      vertex -49.4269999999999 8.95500000000026 -3.03540079704678e-06
      vertex -34.5819999999999 10.0000000000002 -1.84365056786206e-06
   endloop
endfacet
facet normal 7.50000156276216e-08 7.49999971524395e-08 -0.999999999999994
   outer loop
      vertex -34.5819999999999 10.0000000000002 -1.84365056786206e-06
      vertex -49.4269999999999 8.95500000000026 -3.03540079704678e-06
      vertex -49.4269999999999 11.0450000000003 -2.87865080284e-06
   endloop
endfacet
facet normal 7.50000156276216e-08 7.49999971524395e-08 -0.999999999999994
   outer loop
      vertex -34.5819999999999 10.0000000000002 -1.84365056786206e-06
      vertex -49.4269999999999 11.0450000000003 -2.87865080284e-06
      vertex -34.3129999999999 13.4440000000002 -1.56517557411973e-06
   endloop
endfacet
facet normal 7.50000156276216e-08 7.49999971524395e-08 -0.999999999999994
   outer loop
      vertex -34.3129999999999 13.4440000000002 -1.56517557411973e-06
      vertex -49.4269999999999 11.0450000000003 -2.87865080284e-06
      vertex -48.9929999999999 13.0900000000002 -2.69272580200042e-06
   endloop
endfacet
facet normal 7.50000156276216e-08 7.49999971524395e-08 -0.999999999999994
   outer loop
      vertex -34.3129999999999 13.4440000000002 -1.56517557411973e-06
      vertex -48.9929999999999 13.0900000000002 -2.69272580200042e-06
      vertex -48.1419999999999 15.0000000000002 -2.48565079451479e-06
   endloop
endfacet
facet normal 7.50000156276216e-08 7.49999971524395e-08 -0.999999999999994
   outer loop
      vertex -34.3129999999999 13.4440000000002 -1.56517557411973e-06
      vertex -48.1419999999999 15.0000000000002 -2.48565079451479e-06
      vertex -33.5109999999999 16.8050000000002 -1.25295057080699e-06
   endloop
endfacet
facet normal 7.50000156276216e-08 7.49999971524395e-08 -0.999999999999994
   outer loop
      vertex -33.5109999999999 16.8050000000002 -1.25295057080699e-06
      vertex -48.1419999999999 15.0000000000002 -2.48565079451479e-06
      vertex -46.9129999999999 16.6910000000002 -2.26665077974197e-06
   endloop
endfacet
facet normal 7.50000156276216e-08 7.49999971524395e-08 -0.999999999999994
   outer loop
      vertex -33.5109999999999 16.8050000000002 -1.25295057080699e-06
      vertex -46.9129999999999 16.6910000000002 -2.26665077974197e-06
      vertex -45.3599999999999 18.0900000000002 -2.04525075988005e-06
   endloop
endfacet
facet normal 7.50000156276216e-08 7.49999971524395e-08 -0.999999999999994
   outer loop
      vertex -33.5109999999999 16.8050000000002 -1.25295057080699e-06
      vertex -45.3599999999999 18.0900000000002 -2.04525075988005e-06
      vertex -32.1959999999999 20.0000000000001 -9.14700559301318e-07
   endloop
endfacet
facet normal 7.50000156276216e-08 7.49999971524395e-08 -0.999999999999994
   outer loop
      vertex -32.1959999999999 20.0000000000001 -9.14700559301318e-07
      vertex -45.3599999999999 18.0900000000002 -2.04525075988005e-06
      vertex -43.5489999999999 19.1350000000002 -1.83105073484069e-06
   endloop
endfacet
facet normal 7.50000156276216e-08 7.49999971524395e-08 -0.999999999999994
   outer loop
      vertex -32.1959999999999 20.0000000000001 -9.14700559301318e-07
      vertex -43.5489999999999 19.1350000000002 -1.83105073484069e-06
      vertex -41.5609999999999 19.7810000000002 -1.63350070487844e-06
   endloop
endfacet
facet normal 7.50000156276216e-08 7.49999971524395e-08 -0.999999999999994
   outer loop
      vertex -32.1959999999999 20.0000000000001 -9.14700559301318e-07
      vertex -41.5609999999999 19.7810000000002 -1.63350070487844e-06
      vertex -39.4819999999999 20.0000000000002 -1.46115067301e-06
   endloop
endfacet
facet normal 7.50000156276216e-08 7.49999971524395e-08 -0.999999999999994
   outer loop
      vertex 9.72299999999999 9.99999999999992 1.47922512410137e-06
      vertex 43.5129999999999 8.29999999999974 3.88597565693094e-06
      vertex 9.45399999999997 6.55599999999994 1.20075012965404e-06
   endloop
endfacet
facet normal 7.50000156276216e-08 7.49999971524395e-08 -0.999999999999994
   outer loop
      vertex 43.5129999999999 8.29999999999974 3.88597565693094e-06
      vertex 9.72299999999999 9.99999999999992 1.47922512410137e-06
      vertex 42.9876999999999 8.38319999999974 3.85281814840321e-06
   endloop
endfacet
facet normal 7.50000156276216e-08 7.49999971524395e-08 -0.999999999999994
   outer loop
      vertex 42.9876999999999 8.38319999999974 3.85281814840321e-06
      vertex 9.72299999999999 9.99999999999992 1.47922512410137e-06
      vertex 42.5137999999999 8.62466999999974 3.83538589039389e-06
   endloop
endfacet
facet normal 7.50000156276216e-08 7.49999971524395e-08 -0.999999999999994
   outer loop
      vertex 42.5137999999999 8.62466999999974 3.83538589039389e-06
      vertex 9.72299999999999 9.99999999999992 1.47922512410137e-06
      vertex 42.1376999999999 9.00076999999974 3.83538588334398e-06
   endloop
endfacet
facet normal 7.50000156276216e-08 7.49999971524395e-08 -0.999999999999994
   outer loop
      vertex 42.1376999999999 9.00076999999974 3.83538588334398e-06
      vertex 9.72299999999999 9.99999999999992 1.47922512410137e-06
      vertex 41.8961999999999 9.47466999999975 3.8528158783302e-06
   endloop
endfacet
facet normal 7.50000156276216e-08 7.49999971524395e-08 -0.999999999999994
   outer loop
      vertex 41.8961999999999 9.47466999999975 3.8528158783302e-06
      vertex 9.72299999999999 9.99999999999992 1.47922512410137e-06
      vertex 41.8129999999999 9.99999999999974 3.88597562591131e-06
   endloop
endfacet
facet normal 7.50000156276216e-08 7.49999971524395e-08 -0.999999999999994
   outer loop
      vertex 41.8129999999999 9.99999999999974 3.88597562591131e-06
      vertex 9.72299999999999 9.99999999999992 1.47922512410137e-06
      vertex 9.13099999999999 11.8219999999999 1.57147510922995e-06
   endloop
endfacet
facet normal 7.50000156276216e-08 7.49999971524395e-08 -0.999999999999994
   outer loop
      vertex 41.8129999999999 9.99999999999974 3.88597562591131e-06
      vertex 9.13099999999999 11.8219999999999 1.57147510922995e-06
      vertex 41.8961999999999 10.5253299999997 3.93161537556308e-06
   endloop
endfacet
facet normal 7.50000156276216e-08 7.49999971524395e-08 -0.999999999999994
   outer loop
      vertex 41.8961999999999 10.5253299999997 3.93161537556308e-06
      vertex 9.13099999999999 11.8219999999999 1.57147510922995e-06
      vertex 42.1376999999999 10.9992299999997 3.98527037798746e-06
   endloop
endfacet
facet normal 7.50000156276216e-08 7.49999971524395e-08 -0.999999999999994
   outer loop
      vertex 42.1376999999999 10.9992299999997 3.98527037798746e-06
      vertex 9.13099999999999 11.8219999999999 1.57147510922995e-06
      vertex 42.5137999999999 11.3753299999997 4.04168538242211e-06
   endloop
endfacet
facet normal 7.50000156276216e-08 7.49999971524395e-08 -0.999999999999994
   outer loop
      vertex 42.5137999999999 11.3753299999997 4.04168538242211e-06
      vertex 9.13099999999999 11.8219999999999 1.57147510922995e-06
      vertex 42.9876999999999 11.6167999999997 4.09533813874319e-06
   endloop
endfacet
facet normal 7.50000156276216e-08 7.49999971524395e-08 -0.999999999999994
   outer loop
      vertex 42.9876999999999 11.6167999999997 4.09533813874319e-06
      vertex 9.13099999999999 11.8219999999999 1.57147510922995e-06
      vertex 43.5129999999999 11.6999999999997 4.1409756472266e-06
   endloop
endfacet
facet normal 7.50000156276216e-08 7.49999971524395e-08 -0.999999999999994
   outer loop
      vertex -41.5609999999999 0.219000000000233 -3.10065064931253e-06
      vertex 0.0 0.0 0.0
      vertex -39.4819999999999 2.19957385638736e-13 -2.9611506163818e-06
   endloop
endfacet
facet normal 7.50000156276216e-08 7.49999971524395e-08 -0.999999999999994
   outer loop
      vertex 0.0 0.0 0.0
      vertex -41.5609999999999 0.219000000000233 -3.10065064931253e-06
      vertex 1.50699999999998 2.23799999999999 2.80875017866222e-07
   endloop
endfacet
facet normal 7.50000156276216e-08 7.49999971524395e-08 -0.999999999999994
   outer loop
      vertex 1.50699999999998 2.23799999999999 2.80875017866222e-07
      vertex -41.5609999999999 0.219000000000233 -3.10065064931253e-06
      vertex -43.5489999999999 0.865000000000245 -3.20130068292013e-06
   endloop
endfacet
facet normal 7.50000156276216e-08 7.49999971524395e-08 -0.999999999999994
   outer loop
      vertex 1.50699999999998 2.23799999999999 2.80875017866222e-07
      vertex -43.5489999999999 0.865000000000245 -3.20130068292013e-06
      vertex -45.3599999999999 1.91000000000025 -3.2587507137527e-06
   endloop
endfacet
facet normal 7.50000156276216e-08 7.49999971524395e-08 -0.999999999999994
   outer loop
      vertex 1.50699999999998 2.23799999999999 2.80875017866222e-07
      vertex -45.3599999999999 1.91000000000025 -3.2587507137527e-06
      vertex -46.9129999999999 3.30900000000026 -3.27030074163681e-06
   endloop
endfacet
facet normal 7.50000156276216e-08 7.49999971524395e-08 -0.999999999999994
   outer loop
      vertex 1.50699999999998 2.23799999999999 2.80875017866222e-07
      vertex -46.9129999999999 3.30900000000026 -3.27030074163681e-06
      vertex 2.616 4.69899999999998 5.48625028368166e-07
   endloop
endfacet
facet normal 7.50000156276216e-08 7.49999971524395e-08 -0.999999999999994
   outer loop
      vertex 2.616 4.69899999999998 5.48625028368166e-07
      vertex -46.9129999999999 3.30900000000026 -3.27030074163681e-06
      vertex -48.1419999999999 5.00000000000026 -3.2356507658482e-06
   endloop
endfacet
facet normal 7.50000156276216e-08 7.49999971524395e-08 -0.999999999999994
   outer loop
      vertex 2.616 4.69899999999998 5.48625028368166e-07
      vertex -48.1419999999999 5.00000000000026 -3.2356507658482e-06
      vertex 3.29499999999996 7.31099999999997 7.95450031709777e-07
   endloop
endfacet
facet normal 7.50000156276216e-08 7.49999971524395e-08 -0.999999999999994
   outer loop
      vertex 3.29499999999996 7.31099999999997 7.95450031709777e-07
      vertex -48.1419999999999 5.00000000000026 -3.2356507658482e-06
      vertex -48.9929999999999 6.91000000000027 -3.15622578453967e-06
   endloop
endfacet
facet normal 7.50000156276216e-08 7.49999971524395e-08 -0.999999999999994
   outer loop
      vertex 3.29499999999996 7.31099999999997 7.95450031709777e-07
      vertex -48.9929999999999 6.91000000000027 -3.15622578453967e-06
      vertex -30.5239999999999 7.05200000000016 -1.76040049659765e-06
   endloop
endfacet
facet normal 7.50000156276216e-08 7.49999971524395e-08 -0.999999999999994
   outer loop
      vertex -30.5239999999999 7.05200000000016 -1.76040049659765e-06
      vertex -48.9929999999999 6.91000000000027 -3.15622578453967e-06
      vertex -32.4399999999999 7.05200000000017 -1.90410052627321e-06
   endloop
endfacet
facet normal 7.50000156276216e-08 7.49999971524395e-08 -0.999999999999994
   outer loop
      vertex 3.29499999999996 7.31099999999997 7.95450031709777e-07
      vertex -30.5239999999999 7.05200000000016 -1.76040049659765e-06
      vertex -28.974 8.17800000000014 -1.55970047524545e-06
   endloop
endfacet
facet normal 7.50000156276216e-08 7.49999971524395e-08 -0.999999999999994
   outer loop
      vertex 3.29499999999996 7.31099999999997 7.95450031709777e-07
      vertex -28.974 8.17800000000014 -1.55970047524545e-06
      vertex 3.52300000000003 9.99999999999996 1.01422502725712e-06
   endloop
endfacet
facet normal 7.50000156276216e-08 7.49999971524395e-08 -0.999999999999994
   outer loop
      vertex 3.52300000000003 9.99999999999996 1.01422502725712e-06
      vertex -28.974 8.17800000000014 -1.55970047524545e-06
      vertex -28.382 10.0000000000001 -1.37865047101782e-06
   endloop
endfacet
facet normal 7.50000156276216e-08 7.49999971524395e-08 -0.999999999999994
   outer loop
      vertex 3.52300000000003 9.99999999999996 1.01422502725712e-06
      vertex -28.382 10.0000000000001 -1.37865047101782e-06
      vertex -28.154 12.6890000000001 -1.15987547547047e-06
   endloop
endfacet
facet normal 7.50000156276216e-08 7.49999971524395e-08 -0.999999999999994
   outer loop
      vertex 3.52300000000003 9.99999999999996 1.01422502725712e-06
      vertex -28.154 12.6890000000001 -1.15987547547047e-06
      vertex 4.11499999999998 11.822 1.19527503077976e-06
   endloop
endfacet
facet normal 7.50000156276216e-08 7.49999971524395e-08 -0.999999999999994
   outer loop
      vertex 4.11499999999998 11.822 1.19527503077976e-06
      vertex -28.154 12.6890000000001 -1.15987547547047e-06
      vertex 5.66500000000001 12.9479999999999 1.39597505283695e-06
   endloop
endfacet
facet normal 7.50000156276216e-08 7.49999971524395e-08 -0.999999999999994
   outer loop
      vertex 5.66500000000001 12.9479999999999 1.39597505283695e-06
      vertex -28.154 12.6890000000001 -1.15987547547047e-06
      vertex -27.4749999999999 15.3010000000001 -9.13050472833854e-07
   endloop
endfacet
facet normal 7.50000156276216e-08 7.49999971524395e-08 -0.999999999999994
   outer loop
      vertex 5.66500000000001 12.9479999999999 1.39597505283695e-06
      vertex -27.4749999999999 15.3010000000001 -9.13050472833854e-07
      vertex 7.58100000000001 12.9479999999999 1.53967508251251e-06
   endloop
endfacet
facet normal 7.50000156276216e-08 7.49999971524395e-08 -0.999999999999994
   outer loop
      vertex 8.65199999999998 3.19499999999994 8.885251263413e-07
      vertex 58.5179999999999 -3.29936078458104e-13 4.38885091465502e-06
      vertex 7.33699999999999 -4.22994972382185e-14 5.5027511483563e-07
   endloop
endfacet
facet normal 7.50000156276216e-08 7.49999971524395e-08 -0.999999999999994
   outer loop
      vertex 58.5179999999999 -3.29936078458104e-13 4.38885091465502e-06
      vertex 8.65199999999998 3.19499999999994 8.885251263413e-07
      vertex 43.5129999999999 8.29999999999974 3.88597565693094e-06
   endloop
endfacet
facet normal 7.50000156276216e-08 7.49999971524395e-08 -0.999999999999994
   outer loop
      vertex 58.5179999999999 -3.29936078458104e-13 4.38885091465502e-06
      vertex 43.5129999999999 8.29999999999974 3.88597565693094e-06
      vertex 44.0382999999999 8.38319999999974 3.93161316541435e-06
   endloop
endfacet
facet normal 7.50000156276216e-08 7.49999971524395e-08 -0.999999999999994
   outer loop
      vertex 58.5179999999999 -3.29936078458104e-13 4.38885091465502e-06
      vertex 44.0382999999999 8.38319999999974 3.93161316541435e-06
      vertex 44.5121999999999 8.62466999999973 3.98526592173543e-06
   endloop
endfacet
facet normal 7.50000156276216e-08 7.49999971524395e-08 -0.999999999999994
   outer loop
      vertex 58.5179999999999 -3.29936078458104e-13 4.38885091465502e-06
      vertex 44.5121999999999 8.62466999999973 3.98526592173543e-06
      vertex 58.5179999999999 16.4999999999996 5.62635086795438e-06
   endloop
endfacet
facet normal 7.50000156276216e-08 7.49999971524395e-08 -0.999999999999994
   outer loop
      vertex 43.5129999999999 8.29999999999974 3.88597565693094e-06
      vertex 8.65199999999998 3.19499999999994 8.885251263413e-07
      vertex 9.45399999999997 6.55599999999994 1.20075012965404e-06
   endloop
endfacet
facet normal 7.50000156276216e-08 7.49999971524395e-08 -0.999999999999994
   outer loop
      vertex 58.5179999999999 16.4999999999996 5.62635086795438e-06
      vertex 44.5121999999999 8.62466999999973 3.98526592173543e-06
      vertex 44.8882999999999 9.00076999999973 4.04168092617008e-06
   endloop
endfacet
facet normal 7.50000156276216e-08 7.49999971524395e-08 -0.999999999999994
   outer loop
      vertex 58.5179999999999 16.4999999999996 5.62635086795438e-06
      vertex 44.8882999999999 9.00076999999973 4.04168092617008e-06
      vertex 45.1297999999999 9.47466999999973 4.09533592859446e-06
   endloop
endfacet
facet normal 7.50000156276216e-08 7.49999971524395e-08 -0.999999999999994
   outer loop
      vertex 58.5179999999999 16.4999999999996 5.62635086795438e-06
      vertex 45.1297999999999 9.47466999999973 4.09533592859446e-06
      vertex 45.2129999999999 9.99999999999972 4.14097567895122e-06
   endloop
endfacet
facet normal 7.50000156276216e-08 7.49999971524395e-08 -0.999999999999994
   outer loop
      vertex 58.5179999999999 16.4999999999996 5.62635086795438e-06
      vertex 45.2129999999999 9.99999999999972 4.14097567895122e-06
      vertex 45.1297999999999 10.5253299999997 4.17413542582734e-06
   endloop
endfacet
facet normal 7.50000156276216e-08 7.49999971524395e-08 -0.999999999999994
   outer loop
      vertex 58.5179999999999 16.4999999999996 5.62635086795438e-06
      vertex 45.1297999999999 10.5253299999997 4.17413542582734e-06
      vertex 44.8882999999999 10.9992299999997 4.19156542081356e-06
   endloop
endfacet
facet normal 7.50000156276216e-08 7.49999971524395e-08 -0.999999999999994
   outer loop
      vertex 58.5179999999999 16.4999999999996 5.62635086795438e-06
      vertex 44.8882999999999 10.9992299999997 4.19156542081356e-06
      vertex 44.5121999999999 11.3753299999997 4.19156541376364e-06
   endloop
endfacet
facet normal 7.50000156276216e-08 7.49999971524395e-08 -0.999999999999994
   outer loop
      vertex 58.5179999999999 16.4999999999996 5.62635086795438e-06
      vertex 44.5121999999999 11.3753299999997 4.19156541376364e-06
      vertex 44.0382999999999 11.6167999999997 4.17413315575432e-06
   endloop
endfacet
facet normal 7.50000156276216e-08 7.49999971524395e-08 -0.999999999999994
   outer loop
      vertex 58.5179999999999 16.4999999999996 5.62635086795438e-06
      vertex 44.0382999999999 11.6167999999997 4.17413315575432e-06
      vertex 43.5129999999999 11.6999999999997 4.1409756472266e-06
   endloop
endfacet
facet normal 7.50000156276216e-08 7.49999971524395e-08 -0.999999999999994
   outer loop
      vertex 58.5179999999999 16.4999999999996 5.62635086795438e-06
      vertex 43.5129999999999 11.6999999999997 4.1409756472266e-06
      vertex 9.13099999999999 11.8219999999999 1.57147510922995e-06
   endloop
endfacet
facet normal 7.50000156276216e-08 7.49999971524395e-08 -0.999999999999994
   outer loop
      vertex 58.5179999999999 16.4999999999996 5.62635086795438e-06
      vertex 9.13099999999999 11.8219999999999 1.57147510922995e-06
      vertex 7.58100000000001 12.9479999999999 1.53967508251251e-06
   endloop
endfacet
facet normal 7.50000156276216e-08 7.49999971524395e-08 -0.999999999999994
   outer loop
      vertex 58.5179999999999 16.4999999999996 5.62635086795438e-06
      vertex 7.58100000000001 12.9479999999999 1.53967508251251e-06
      vertex -27.4749999999999 15.3010000000001 -9.13050472833854e-07
   endloop
endfacet
facet normal 7.50000156276216e-08 7.49999971524395e-08 -0.999999999999994
   outer loop
      vertex 58.5179999999999 16.4999999999996 5.62635086795438e-06
      vertex -27.4749999999999 15.3010000000001 -9.13050472833854e-07
      vertex -26.366 17.7620000000001 -6.45300461626919e-07
   endloop
endfacet
facet normal 7.50000156276216e-08 7.49999971524395e-08 -0.999999999999994
   outer loop
      vertex 58.5179999999999 16.4999999999996 5.62635086795438e-06
      vertex -26.366 17.7620000000001 -6.45300461626919e-07
      vertex 58.0489999999999 18.2499999999996 5.72242585561988e-06
   endloop
endfacet
facet normal 7.50000156276216e-08 7.49999971524395e-08 -0.999999999999994
   outer loop
      vertex 58.0489999999999 18.2499999999996 5.72242585561988e-06
      vertex -26.366 17.7620000000001 -6.45300461626919e-07
      vertex -24.859 20.0000000000001 -3.64425444465688e-07
   endloop
endfacet
facet normal 7.50000156276216e-08 7.49999971524395e-08 -0.999999999999994
   outer loop
      vertex 58.0489999999999 18.2499999999996 5.72242585561988e-06
      vertex -24.859 20.0000000000001 -3.64425444465688e-07
      vertex 56.7679999999999 19.5309999999996 5.72242583235516e-06
   endloop
endfacet
facet normal 7.50000156276216e-08 7.49999971524395e-08 -0.999999999999994
   outer loop
      vertex 56.7679999999999 19.5309999999996 5.72242583235516e-06
      vertex -24.859 20.0000000000001 -3.64425444465688e-07
      vertex 55.0179999999999 19.9999999999997 5.62635080380014e-06
   endloop
endfacet
facet normal -0.999999999999997 5.62500093659315e-15 -7.50000156276214e-08
   outer loop
      vertex -49.4269999999999 11.0450000000003 -2.87865080284e-06
      vertex -49.4270006 8.95499940000028 7.99999696459917
      vertex -49.4270006 11.0449994000003 7.99999712134916
   endloop
endfacet
facet normal -0.999999999999997 5.62500093659315e-15 -7.50000156276214e-08
   outer loop
      vertex -49.4270006 8.95499940000028 7.99999696459917
      vertex -49.4269999999999 11.0450000000003 -2.87865080284e-06
      vertex -49.4269999999999 8.95500000000026 -3.03540079704678e-06
   endloop
endfacet
facet normal -7.50000156276216e-08 -7.49999971524395e-08 0.999999999999994
   outer loop
      vertex 58.5179993999997 -6.00000306438808e-07 8.00000438885088
      vertex 45.0504993999998 7.33696939999975 8.0000039290609
      vertex 7.33699939999987 -6.00000018802227e-07 8.00000055027508
   endloop
endfacet
facet normal -7.50000156276216e-08 -7.49999971524395e-08 0.999999999999994
   outer loop
      vertex 45.0504993999998 7.33696939999975 8.0000039290609
      vertex 58.5179993999997 -6.00000306438808e-07 8.00000438885088
      vertex 58.5179993999997 16.4999993999997 8.00000562635083
   endloop
endfacet
facet normal -7.50000156276216e-08 -7.49999971524395e-08 0.999999999999994
   outer loop
      vertex 7.33699939999987 -6.00000018802227e-07 8.00000055027508
      vertex 45.0504993999998 7.33696939999975 8.0000039290609
      vertex 8.65199939999985 3.19499939999996 8.00000088852509
   endloop
endfacet
facet normal -7.50000156276216e-08 -7.49999971524395e-08 0.999999999999994
   outer loop
      vertex 8.65199939999985 3.19499939999996 8.00000088852509
      vertex 45.0504993999998 7.33696939999975 8.0000039290609
      vertex 9.45399939999984 6.55599939999996 8.00000120075009
   endloop
endfacet
facet normal -7.50000156276216e-08 -7.49999971524395e-08 0.999999999999994
   outer loop
      vertex 45.0504993999998 7.33696939999975 8.0000039290609
      vertex 58.5179993999997 16.4999993999997 8.00000562635083
      vertex 46.5879993999998 9.99999939999974 8.00000424410066
   endloop
endfacet
facet normal -7.50000156276216e-08 -7.49999971524395e-08 0.999999999999994
   outer loop
      vertex 46.5879993999998 9.99999939999974 8.00000424410066
      vertex 58.5179993999997 16.4999993999997 8.00000562635083
      vertex 45.0504993999998 12.6630273999997 8.00000432851523
   endloop
endfacet
facet normal -7.50000156276216e-08 -7.49999971524395e-08 0.999999999999994
   outer loop
      vertex 45.0504993999998 12.6630273999997 8.00000432851523
      vertex 58.5179993999997 16.4999993999997 8.00000562635083
      vertex 41.9754993999998 12.6630273999998 8.00000409789018
   endloop
endfacet
facet normal -7.50000156276216e-08 -7.49999971524395e-08 0.999999999999994
   outer loop
      vertex 41.9754993999998 12.6630273999998 8.00000409789018
      vertex 58.5179993999997 16.4999993999997 8.00000562635083
      vertex 7.58099939999988 12.9479994 8.00000153967505
   endloop
endfacet
facet normal -7.50000156276216e-08 -7.49999971524395e-08 0.999999999999994
   outer loop
      vertex 7.58099939999988 12.9479994 8.00000153967505
      vertex 58.5179993999997 16.4999993999997 8.00000562635083
      vertex 5.66499939999988 12.9479994 8.00000139597502
   endloop
endfacet
facet normal -7.50000156276216e-08 -7.49999971524395e-08 0.999999999999994
   outer loop
      vertex 5.66499939999988 12.9479994 8.00000139597502
      vertex 58.5179993999997 16.4999993999997 8.00000562635083
      vertex -27.4750006000001 15.3009994000001 7.99999908694949
   endloop
endfacet
facet normal -7.50000156276216e-08 -7.49999971524395e-08 0.999999999999994
   outer loop
      vertex -27.4750006000001 15.3009994000001 7.99999908694949
      vertex 58.5179993999997 16.4999993999997 8.00000562635083
      vertex -26.3660006000001 17.7619994000001 7.9999993546995
   endloop
endfacet
facet normal -7.50000156276216e-08 -7.49999971524395e-08 0.999999999999994
   outer loop
      vertex -26.3660006000001 17.7619994000001 7.9999993546995
      vertex 58.5179993999997 16.4999993999997 8.00000562635083
      vertex 58.0489993999998 18.2499993999997 8.00000572242582
   endloop
endfacet
facet normal -7.50000156276216e-08 -7.49999971524395e-08 0.999999999999994
   outer loop
      vertex -26.3660006000001 17.7619994000001 7.9999993546995
      vertex 58.0489993999998 18.2499993999997 8.00000572242582
      vertex -24.8590006000001 19.9999994000001 7.99999963557452
   endloop
endfacet
facet normal -7.50000156276216e-08 -7.49999971524395e-08 0.999999999999994
   outer loop
      vertex -24.8590006000001 19.9999994000001 7.99999963557452
      vertex 58.0489993999998 18.2499993999997 8.00000572242582
      vertex 56.7679993999998 19.5309993999997 8.00000572242579
   endloop
endfacet
facet normal -7.50000156276216e-08 -7.49999971524395e-08 0.999999999999994
   outer loop
      vertex -24.8590006000001 19.9999994000001 7.99999963557452
      vertex 56.7679993999998 19.5309993999997 8.00000572242579
      vertex 55.0179993999997 19.9999993999997 8.00000562635076
   endloop
endfacet
facet normal -7.50000156276216e-08 -7.49999971524395e-08 0.999999999999994
   outer loop
      vertex 1.50699939999986 2.23799940000001 8.00000028087498
      vertex -39.4820006 -5.99999756545344e-07 7.99999703884935
      vertex -6.00000123140987e-07 -5.99999979322696e-07 7.99999999999996
   endloop
endfacet
facet normal -7.50000156276216e-08 -7.49999971524395e-08 0.999999999999994
   outer loop
      vertex -39.4820006 -5.99999756545344e-07 7.99999703884935
      vertex 1.50699939999986 2.23799940000001 8.00000028087498
      vertex -41.5610006 0.218999400000256 7.99999689934931
   endloop
endfacet
facet normal -7.50000156276216e-08 -7.49999971524395e-08 0.999999999999994
   outer loop
      vertex -41.5610006 0.218999400000256 7.99999689934931
      vertex 1.50699939999986 2.23799940000001 8.00000028087498
      vertex -43.5490006 0.864999400000268 7.99999679869928
   endloop
endfacet
facet normal -7.50000156276216e-08 -7.49999971524395e-08 0.999999999999994
   outer loop
      vertex -43.5490006 0.864999400000268 7.99999679869928
      vertex 1.50699939999986 2.23799940000001 8.00000028087498
      vertex -45.3600006 1.90999940000027 7.99999674124925
   endloop
endfacet
facet normal -7.50000156276216e-08 -7.49999971524395e-08 0.999999999999994
   outer loop
      vertex -45.3600006 1.90999940000027 7.99999674124925
      vertex 1.50699939999986 2.23799940000001 8.00000028087498
      vertex -46.9130006 3.30899940000029 7.99999672969922
   endloop
endfacet
facet normal -7.50000156276216e-08 -7.49999971524395e-08 0.999999999999994
   outer loop
      vertex -46.9130006 3.30899940000029 7.99999672969922
      vertex 1.50699939999986 2.23799940000001 8.00000028087498
      vertex 2.61599939999987 4.6989994 8.00000054862499
   endloop
endfacet
facet normal -7.50000156276216e-08 -7.49999971524395e-08 0.999999999999994
   outer loop
      vertex -46.9130006 3.30899940000029 7.99999672969922
      vertex 2.61599939999987 4.6989994 8.00000054862499
      vertex -48.1420006 4.99999940000028 7.9999967643492
   endloop
endfacet
facet normal -7.50000156276216e-08 -7.49999971524395e-08 0.999999999999994
   outer loop
      vertex -48.1420006 4.99999940000028 7.9999967643492
      vertex 2.61599939999987 4.6989994 8.00000054862499
      vertex 3.29499939999984 7.31099939999999 8.00000079544999
   endloop
endfacet
facet normal -7.50000156276216e-08 -7.49999971524395e-08 0.999999999999994
   outer loop
      vertex -48.1420006 4.99999940000028 7.9999967643492
      vertex 3.29499939999984 7.31099939999999 8.00000079544999
      vertex -48.9930006 6.90999940000029 7.99999684377418
   endloop
endfacet
facet normal -7.50000156276216e-08 -7.49999971524395e-08 0.999999999999994
   outer loop
      vertex -48.9930006 6.90999940000029 7.99999684377418
      vertex 3.29499939999984 7.31099939999999 8.00000079544999
      vertex -30.5240006000001 7.05199940000018 7.99999823959947
   endloop
endfacet
facet normal -7.50000156276216e-08 -7.49999971524395e-08 0.999999999999994
   outer loop
      vertex -30.5240006000001 7.05199940000018 7.99999823959947
      vertex 3.29499939999984 7.31099939999999 8.00000079544999
      vertex -28.9740006000001 8.17799940000017 7.99999844029949
   endloop
endfacet
facet normal -7.50000156276216e-08 -7.49999971524395e-08 0.999999999999994
   outer loop
      vertex -28.9740006000001 8.17799940000017 7.99999844029949
      vertex 3.29499939999984 7.31099939999999 8.00000079544999
      vertex 3.5229993999999 9.99999939999998 8.00000101422499
   endloop
endfacet
facet normal -7.50000156276216e-08 -7.49999971524395e-08 0.999999999999994
   outer loop
      vertex -28.9740006000001 8.17799940000017 7.99999844029949
      vertex 3.5229993999999 9.99999939999998 8.00000101422499
      vertex -28.3820006000001 9.99999940000016 7.99999862134949
   endloop
endfacet
facet normal -7.50000156276216e-08 -7.49999971524395e-08 0.999999999999994
   outer loop
      vertex -28.3820006000001 9.99999940000016 7.99999862134949
      vertex 3.5229993999999 9.99999939999998 8.00000101422499
      vertex 4.11499939999986 11.8219994 8.00000119527499
   endloop
endfacet
facet normal -7.50000156276216e-08 -7.49999971524395e-08 0.999999999999994
   outer loop
      vertex -28.3820006000001 9.99999940000016 7.99999862134949
      vertex 4.11499939999986 11.8219994 8.00000119527499
      vertex -28.1540006000001 12.6889994000002 7.99999884012449
   endloop
endfacet
facet normal -7.50000156276216e-08 -7.49999971524395e-08 0.999999999999994
   outer loop
      vertex -28.1540006000001 12.6889994000002 7.99999884012449
      vertex 4.11499939999986 11.8219994 8.00000119527499
      vertex 5.66499939999988 12.9479994 8.00000139597502
   endloop
endfacet
facet normal -7.50000156276216e-08 -7.49999971524395e-08 0.999999999999994
   outer loop
      vertex -28.1540006000001 12.6889994000002 7.99999884012449
      vertex 5.66499939999988 12.9479994 8.00000139597502
      vertex -27.4750006000001 15.3009994000001 7.99999908694949
   endloop
endfacet
facet normal -7.50000156276216e-08 -7.49999971524395e-08 0.999999999999994
   outer loop
      vertex 9.45399939999984 6.55599939999996 8.00000120075009
      vertex 41.9754993999998 7.33696939999977 8.00000369843585
      vertex 9.72299939999986 9.99999939999995 8.00000147922509
   endloop
endfacet
facet normal -7.50000156276216e-08 -7.49999971524395e-08 0.999999999999994
   outer loop
      vertex 41.9754993999998 7.33696939999977 8.00000369843585
      vertex 9.45399939999984 6.55599939999996 8.00000120075009
      vertex 45.0504993999998 7.33696939999975 8.0000039290609
   endloop
endfacet
facet normal -7.50000156276216e-08 -7.49999971524395e-08 0.999999999999994
   outer loop
      vertex 9.72299939999986 9.99999939999995 8.00000147922509
      vertex 41.9754993999998 7.33696939999977 8.00000369843585
      vertex 40.4379993999998 9.99999939999977 8.00000378285057
   endloop
endfacet
facet normal -7.50000156276216e-08 -7.49999971524395e-08 0.999999999999994
   outer loop
      vertex 9.72299939999986 9.99999939999995 8.00000147922509
      vertex 40.4379993999998 9.99999939999977 8.00000378285057
      vertex 41.9754993999998 12.6630273999998 8.00000409789018
   endloop
endfacet
facet normal -7.50000156276216e-08 -7.49999971524395e-08 0.999999999999994
   outer loop
      vertex 9.72299939999986 9.99999939999995 8.00000147922509
      vertex 41.9754993999998 12.6630273999998 8.00000409789018
      vertex 9.13099939999986 11.8219993999999 8.00000157147507
   endloop
endfacet
facet normal -7.50000156276216e-08 -7.49999971524395e-08 0.999999999999994
   outer loop
      vertex 9.13099939999986 11.8219993999999 8.00000157147507
      vertex 41.9754993999998 12.6630273999998 8.00000409789018
      vertex 7.58099939999988 12.9479994 8.00000153967505
   endloop
endfacet
facet normal -7.50000156276216e-08 -7.49999971524395e-08 0.999999999999994
   outer loop
      vertex -48.9930006 6.90999940000029 7.99999684377418
      vertex -32.4400006000001 7.05199940000019 7.99999809589944
      vertex -49.4270006 8.95499940000028 7.99999696459917
   endloop
endfacet
facet normal -7.50000156276216e-08 -7.49999971524395e-08 0.999999999999994
   outer loop
      vertex -32.4400006000001 7.05199940000019 7.99999809589944
      vertex -48.9930006 6.90999940000029 7.99999684377418
      vertex -30.5240006000001 7.05199940000018 7.99999823959947
   endloop
endfacet
facet normal -7.50000156276216e-08 -7.49999971524395e-08 0.999999999999994
   outer loop
      vertex -49.4270006 8.95499940000028 7.99999696459917
      vertex -32.4400006000001 7.05199940000019 7.99999809589944
      vertex -33.9900006000001 8.17799940000019 7.99999806409941
   endloop
endfacet
facet normal -7.50000156276216e-08 -7.49999971524395e-08 0.999999999999994
   outer loop
      vertex -49.4270006 8.95499940000028 7.99999696459917
      vertex -33.9900006000001 8.17799940000019 7.99999806409941
      vertex -34.5820006 9.9999994000002 7.99999815634939
   endloop
endfacet
facet normal -7.50000156276216e-08 -7.49999971524395e-08 0.999999999999994
   outer loop
      vertex -49.4270006 8.95499940000028 7.99999696459917
      vertex -34.5820006 9.9999994000002 7.99999815634939
      vertex -49.4270006 11.0449994000003 7.99999712134916
   endloop
endfacet
facet normal -7.50000156276216e-08 -7.49999971524395e-08 0.999999999999994
   outer loop
      vertex -49.4270006 11.0449994000003 7.99999712134916
      vertex -34.5820006 9.9999994000002 7.99999815634939
      vertex -34.3130006000001 13.4439994000002 7.99999843482439
   endloop
endfacet
facet normal -7.50000156276216e-08 -7.49999971524395e-08 0.999999999999994
   outer loop
      vertex -49.4270006 11.0449994000003 7.99999712134916
      vertex -34.3130006000001 13.4439994000002 7.99999843482439
      vertex -48.9930006 13.0899994000003 7.99999730727416
   endloop
endfacet
facet normal -7.50000156276216e-08 -7.49999971524395e-08 0.999999999999994
   outer loop
      vertex -48.9930006 13.0899994000003 7.99999730727416
      vertex -34.3130006000001 13.4439994000002 7.99999843482439
      vertex -48.1420006 14.9999994000003 7.99999751434917
   endloop
endfacet
facet normal -7.50000156276216e-08 -7.49999971524395e-08 0.999999999999994
   outer loop
      vertex -48.1420006 14.9999994000003 7.99999751434917
      vertex -34.3130006000001 13.4439994000002 7.99999843482439
      vertex -33.5110006 16.8049994000002 7.99999874704939
   endloop
endfacet
facet normal -7.50000156276216e-08 -7.49999971524395e-08 0.999999999999994
   outer loop
      vertex -48.1420006 14.9999994000003 7.99999751434917
      vertex -33.5110006 16.8049994000002 7.99999874704939
      vertex -46.9130006 16.6909994000002 7.99999773334918
   endloop
endfacet
facet normal -7.50000156276216e-08 -7.49999971524395e-08 0.999999999999994
   outer loop
      vertex -46.9130006 16.6909994000002 7.99999773334918
      vertex -33.5110006 16.8049994000002 7.99999874704939
      vertex -45.3600006 18.0899994000002 7.9999979547492
   endloop
endfacet
facet normal -7.50000156276216e-08 -7.49999971524395e-08 0.999999999999994
   outer loop
      vertex -45.3600006 18.0899994000002 7.9999979547492
      vertex -33.5110006 16.8049994000002 7.99999874704939
      vertex -32.1960006 19.9999994000002 7.9999990852994
   endloop
endfacet
facet normal -7.50000156276216e-08 -7.49999971524395e-08 0.999999999999994
   outer loop
      vertex -45.3600006 18.0899994000002 7.9999979547492
      vertex -32.1960006 19.9999994000002 7.9999990852994
      vertex -43.5490006 19.1349994000002 7.99999816894923
   endloop
endfacet
facet normal -7.50000156276216e-08 -7.49999971524395e-08 0.999999999999994
   outer loop
      vertex -43.5490006 19.1349994000002 7.99999816894923
      vertex -32.1960006 19.9999994000002 7.9999990852994
      vertex -41.5610006 19.7809994000002 7.99999836649926
   endloop
endfacet
facet normal -7.50000156276216e-08 -7.49999971524395e-08 0.999999999999994
   outer loop
      vertex -41.5610006 19.7809994000002 7.99999836649926
      vertex -32.1960006 19.9999994000002 7.9999990852994
      vertex -39.4820006 19.9999994000002 7.99999853884929
   endloop
endfacet
facet normal -0.913436456999417 -0.406981374296592 -9.9031350441074e-08
   outer loop
      vertex -48.9929999999999 6.91000000000027 -3.15622578453967e-06
      vertex -48.1420006 4.99999940000028 7.9999967643492
      vertex -48.9930006 6.90999940000029 7.99999684377418
   endloop
endfacet
facet normal -0.913436456999417 -0.406981374296592 -9.9031350441074e-08
   outer loop
      vertex -48.1420006 4.99999940000028 7.9999967643492
      vertex -48.9929999999999 6.91000000000027 -3.15622578453967e-06
      vertex -48.1419999999999 5.00000000000026 -3.2356507658482e-06
   endloop
endfacet
facet normal -0.808922219886814 -0.587915676073855 -1.04762853132585e-07
   outer loop
      vertex -48.1419999999999 5.00000000000026 -3.2356507658482e-06
      vertex -46.9130006 3.30899940000029 7.99999672969922
      vertex -48.1420006 4.99999940000028 7.9999967643492
   endloop
endfacet
facet normal -0.808922219886814 -0.587915676073855 -1.04762853132585e-07
   outer loop
      vertex -46.9130006 3.30899940000029 7.99999672969922
      vertex -48.1419999999999 5.00000000000026 -3.2356507658482e-06
      vertex -46.9129999999999 3.30900000000026 -3.27030074163681e-06
   endloop
endfacet
facet normal -0.669308276045326 -0.742984812507781 -1.05921989945209e-07
   outer loop
      vertex -45.3599999999999 1.91000000000025 -3.2587507137527e-06
      vertex -46.9130006 3.30899940000029 7.99999672969922
      vertex -46.9129999999999 3.30900000000026 -3.27030074163681e-06
   endloop
endfacet
facet normal -0.669308276045326 -0.742984812507781 -1.05921989945209e-07
   outer loop
      vertex -46.9130006 3.30899940000029 7.99999672969922
      vertex -45.3599999999999 1.91000000000025 -3.2587507137527e-06
      vertex -45.3600006 1.90999940000027 7.99999674124925
   endloop
endfacet
facet normal -0.499791458578527 -0.866145771756659 -1.02445297572335e-07
   outer loop
      vertex -43.5489999999999 0.865000000000245 -3.20130068292013e-06
      vertex -45.3600006 1.90999940000027 7.99999674124925
      vertex -45.3599999999999 1.91000000000025 -3.2587507137527e-06
   endloop
endfacet
facet normal -0.499791458578527 -0.866145771756659 -1.02445297572335e-07
   outer loop
      vertex -45.3600006 1.90999940000027 7.99999674124925
      vertex -43.5489999999999 0.865000000000245 -3.20130068292013e-06
      vertex -43.5490006 0.864999400000268 7.99999679869928
   endloop
endfacet
facet normal -0.309042802877425 -0.951048130217213 -9.45068220519789e-08
   outer loop
      vertex -41.5609999999999 0.219000000000233 -3.10065064931253e-06
      vertex -43.5490006 0.864999400000268 7.99999679869928
      vertex -43.5489999999999 0.865000000000245 -3.20130068292013e-06
   endloop
endfacet
facet normal -0.309042802877425 -0.951048130217213 -9.45068220519789e-08
   outer loop
      vertex -43.5490006 0.864999400000268 7.99999679869928
      vertex -41.5609999999999 0.219000000000233 -3.10065064931253e-06
      vertex -41.5610006 0.218999400000256 7.99999689934931
   endloop
endfacet
facet normal -0.104759486051764 -0.994497586765379 -8.24442792126241e-08
   outer loop
      vertex -39.4819999999999 2.19957385638736e-13 -2.9611506163818e-06
      vertex -41.5610006 0.218999400000256 7.99999689934931
      vertex -41.5609999999999 0.219000000000233 -3.10065064931253e-06
   endloop
endfacet
facet normal -0.104759486051764 -0.994497586765379 -8.24442792126241e-08
   outer loop
      vertex -41.5610006 0.218999400000256 7.99999689934931
      vertex -39.4819999999999 2.19957385638736e-13 -2.9611506163818e-06
      vertex -39.4820006 -5.99999756545344e-07 7.99999703884935
   endloop
endfacet
facet normal -7.65927142091836e-24 -0.999999999999997 -7.49999970982297e-08
   outer loop
      vertex 0.0 0.0 0.0
      vertex -39.4820006 -5.99999756545344e-07 7.99999703884935
      vertex -39.4819999999999 2.19957385638736e-13 -2.9611506163818e-06
   endloop
endfacet
facet normal -7.65927142091836e-24 -0.999999999999997 -7.49999970982297e-08
   outer loop
      vertex -39.4820006 -5.99999756545344e-07 7.99999703884935
      vertex 0.0 0.0 0.0
      vertex -6.00000123140987e-07 -5.99999979322696e-07 7.99999999999996
   endloop
endfacet
facet normal 0.82947547515528 -0.558543137202421 2.03199399299574e-08
   outer loop
      vertex 0.0 0.0 0.0
      vertex 1.50699939999986 2.23799940000001 8.00000028087498
      vertex -6.00000123140987e-07 -5.99999979322696e-07 7.99999999999996
   endloop
endfacet
facet normal 0.82947547515528 -0.558543137202421 2.03199399299574e-08
   outer loop
      vertex 1.50699939999986 2.23799940000001 8.00000028087498
      vertex 0.0 0.0 0.0
      vertex 1.50699999999998 2.23799999999999 2.80875017866222e-07
   endloop
endfacet
facet normal 0.911706496901819 -0.410842139400296 3.75648422525882e-08
   outer loop
      vertex 1.50699999999998 2.23799999999999 2.80875017866222e-07
      vertex 2.61599939999987 4.6989994 8.00000054862499
      vertex 1.50699939999986 2.23799940000001 8.00000028087498
   endloop
endfacet
facet normal 0.911706496901819 -0.410842139400296 3.75648422525882e-08
   outer loop
      vertex 2.61599939999987 4.6989994 8.00000054862499
      vertex 1.50699999999998 2.23799999999999 2.80875017866222e-07
      vertex 2.616 4.69899999999998 5.48625028368166e-07
   endloop
endfacet
facet normal 0.967833334520082 -0.251592202962921 5.37181007217833e-08
   outer loop
      vertex 2.616 4.69899999999998 5.48625028368166e-07
      vertex 3.29499939999984 7.31099939999999 8.00000079544999
      vertex 2.61599939999987 4.6989994 8.00000054862499
   endloop
endfacet
facet normal 0.967833334520082 -0.251592202962921 5.37181007217833e-08
   outer loop
      vertex 3.29499939999984 7.31099939999999 8.00000079544999
      vertex 2.616 4.69899999999998 5.48625028368166e-07
      vertex 3.29499999999996 7.31099999999997 7.95450031709777e-07
   endloop
endfacet
facet normal 0.996424604724116 -0.0844867273622586 6.83953566190475e-08
   outer loop
      vertex 3.29499999999996 7.31099999999997 7.95450031709777e-07
      vertex 3.5229993999999 9.99999939999998 8.00000101422499
      vertex 3.29499939999984 7.31099939999999 8.00000079544999
   endloop
endfacet
facet normal 0.996424604724116 -0.0844867273622586 6.83953566190475e-08
   outer loop
      vertex 3.5229993999999 9.99999939999998 8.00000101422499
      vertex 3.29499999999996 7.31099999999997 7.95450031709777e-07
      vertex 3.52300000000003 9.99999999999996 1.01422502725712e-06
   endloop
endfacet
facet normal 0.951057081836285 -0.309015253812893 4.81531528612062e-08
   outer loop
      vertex 3.52300000000003 9.99999999999996 1.01422502725712e-06
      vertex 4.11499939999986 11.8219994 8.00000119527499
      vertex 3.5229993999999 9.99999939999998 8.00000101422499
   endloop
endfacet
facet normal 0.951057081836285 -0.309015253812893 4.81531528612062e-08
   outer loop
      vertex 4.11499939999986 11.8219994 8.00000119527499
      vertex 3.52300000000003 9.99999999999996 1.01422502725712e-06
      vertex 4.11499999999998 11.822 1.19527503077976e-06
   endloop
endfacet
facet normal 0.58773710885142 -0.809051970443787 -1.65986030868114e-08
   outer loop
      vertex 5.66500000000001 12.9479999999999 1.39597505283695e-06
      vertex 4.11499939999986 11.8219994 8.00000119527499
      vertex 4.11499999999998 11.822 1.19527503077976e-06
   endloop
endfacet
facet normal 0.58773710885142 -0.809051970443787 -1.65986030868114e-08
   outer loop
      vertex 4.11499939999986 11.8219994 8.00000119527499
      vertex 5.66500000000001 12.9479999999999 1.39597505283695e-06
      vertex 5.66499939999988 12.9479994 8.00000139597502
   endloop
endfacet
facet normal -7.65927142091836e-24 -0.999999999999997 -7.49999970982297e-08
   outer loop
      vertex 7.58100000000001 12.9479999999999 1.53967508251251e-06
      vertex 5.66499939999988 12.9479994 8.00000139597502
      vertex 5.66500000000001 12.9479999999999 1.39597505283695e-06
   endloop
endfacet
facet normal -7.65927142091836e-24 -0.999999999999997 -7.49999970982297e-08
   outer loop
      vertex 5.66499939999988 12.9479994 8.00000139597502
      vertex 7.58100000000001 12.9479999999999 1.53967508251251e-06
      vertex 7.58099939999988 12.9479994 8.00000153967505
   endloop
endfacet
facet normal -0.587737108851418 -0.809051970443781 -1.04759187784391e-07
   outer loop
      vertex 9.13099999999999 11.8219999999999 1.57147510922995e-06
      vertex 7.58099939999988 12.9479994 8.00000153967505
      vertex 7.58100000000001 12.9479999999999 1.53967508251251e-06
   endloop
endfacet
facet normal -0.587737108851418 -0.809051970443781 -1.04759187784391e-07
   outer loop
      vertex 7.58099939999988 12.9479994 8.00000153967505
      vertex 9.13099999999999 11.8219999999999 1.57147510922995e-06
      vertex 9.13099939999986 11.8219993999999 8.00000157147507
   endloop
endfacet
facet normal -0.951057081836286 -0.309015253812881 -9.45054391397569e-08
   outer loop
      vertex 9.13099999999999 11.8219999999999 1.57147510922995e-06
      vertex 9.72299939999986 9.99999939999995 8.00000147922509
      vertex 9.13099939999986 11.8219993999999 8.00000157147507
   endloop
endfacet
facet normal -0.951057081836286 -0.309015253812881 -9.45054391397569e-08
   outer loop
      vertex 9.72299939999986 9.99999939999995 8.00000147922509
      vertex 9.13099999999999 11.8219999999999 1.57147510922995e-06
      vertex 9.72299999999999 9.99999999999992 1.47922512410137e-06
   endloop
endfacet
facet normal -0.996963546080929 0.0778696846387299 -6.89320554142943e-08
   outer loop
      vertex 9.72299999999999 9.99999999999992 1.47922512410137e-06
      vertex 9.45399939999984 6.55599939999996 8.00000120075009
      vertex 9.72299939999986 9.99999939999995 8.00000147922509
   endloop
endfacet
facet normal -0.996963546080929 0.0778696846387299 -6.89320554142943e-08
   outer loop
      vertex 9.45399939999984 6.55599939999996 8.00000120075009
      vertex 9.72299999999999 9.99999999999992 1.47922512410137e-06
      vertex 9.45399999999997 6.55599999999994 1.20075012965404e-06
   endloop
endfacet
facet normal -0.972691202343189 0.232103047985498 -5.5544127451187e-08
   outer loop
      vertex 9.45399999999997 6.55599999999994 1.20075012965404e-06
      vertex 8.65199939999985 3.19499939999996 8.00000088852509
      vertex 9.45399939999984 6.55599939999996 8.00000120075009
   endloop
endfacet
facet normal -0.972691202343189 0.232103047985498 -5.5544127451187e-08
   outer loop
      vertex 8.65199939999985 3.19499939999996 8.00000088852509
      vertex 9.45399999999997 6.55599999999994 1.20075012965404e-06
      vertex 8.65199999999998 3.19499999999994 8.885251263413e-07
   endloop
endfacet
facet normal -0.924738028735129 0.380604227789269 -4.08100506268219e-08
   outer loop
      vertex 8.65199999999998 3.19499999999994 8.885251263413e-07
      vertex 7.33699939999987 -6.00000018802227e-07 8.00000055027508
      vertex 8.65199939999985 3.19499939999996 8.00000088852509
   endloop
endfacet
facet normal -0.924738028735129 0.380604227789269 -4.08100506268219e-08
   outer loop
      vertex 7.33699939999987 -6.00000018802227e-07 8.00000055027508
      vertex 8.65199999999998 3.19499999999994 8.885251263413e-07
      vertex 7.33699999999999 -4.22994972382185e-14 5.5027511483563e-07
   endloop
endfacet
facet normal -7.65927142091836e-24 -0.999999999999997 -7.49999970982297e-08
   outer loop
      vertex 58.5179999999999 -3.29936078458104e-13 4.38885091465502e-06
      vertex 7.33699939999987 -6.00000018802227e-07 8.00000055027508
      vertex 7.33699999999999 -4.22994972382185e-14 5.5027511483563e-07
   endloop
endfacet
facet normal -7.65927142091836e-24 -0.999999999999997 -7.49999970982297e-08
   outer loop
      vertex 7.33699939999987 -6.00000018802227e-07 8.00000055027508
      vertex 58.5179999999999 -3.29936078458104e-13 4.38885091465502e-06
      vertex 58.5179993999997 -6.00000306438808e-07 8.00000438885088
   endloop
endfacet
facet normal 0.999999999999997 -5.62500093659315e-15 7.50000156276214e-08
   outer loop
      vertex 58.5179999999999 -3.29936078458104e-13 4.38885091465502e-06
      vertex 58.5179993999997 16.4999993999997 8.00000562635083
      vertex 58.5179993999997 -6.00000306438808e-07 8.00000438885088
   endloop
endfacet
facet normal 0.999999999999997 -5.62500093659315e-15 7.50000156276214e-08
   outer loop
      vertex 58.5179993999997 16.4999993999997 8.00000562635083
      vertex 58.5179999999999 -3.29936078458104e-13 4.38885091465502e-06
      vertex 58.5179999999999 16.4999999999996 5.62635086795438e-06
   endloop
endfacet
facet normal 0.965913556273918 0.258864833081406 9.18583935454151e-08
   outer loop
      vertex 58.5179999999999 16.4999999999996 5.62635086795438e-06
      vertex 58.0489993999998 18.2499993999997 8.00000572242582
      vertex 58.5179993999997 16.4999993999997 8.00000562635083
   endloop
endfacet
facet normal 0.965913556273918 0.258864833081406 9.18583935454151e-08
   outer loop
      vertex 58.0489993999998 18.2499993999997 8.00000572242582
      vertex 58.5179999999999 16.4999999999996 5.62635086795438e-06
      vertex 58.0489999999999 18.2499999999996 5.72242585561988e-06
   endloop
endfacet
facet normal 0.707106781186548 0.707106781186539 1.06066026176518e-07
   outer loop
      vertex 58.0489999999999 18.2499999999996 5.72242585561988e-06
      vertex 56.7679993999998 19.5309993999997 8.00000572242579
      vertex 58.0489993999998 18.2499993999997 8.00000572242582
   endloop
endfacet
facet normal 0.707106781186548 0.707106781186539 1.06066026176518e-07
   outer loop
      vertex 56.7679993999998 19.5309993999997 8.00000572242579
      vertex 58.0489999999999 18.2499999999996 5.72242585561988e-06
      vertex 56.7679999999999 19.5309999999996 5.72242583235516e-06
   endloop
endfacet
facet normal 0.258864833081409 0.965913556273917 9.18583804442322e-08
   outer loop
      vertex 56.7679993999998 19.5309993999997 8.00000572242579
      vertex 55.0179999999999 19.9999999999997 5.62635080380014e-06
      vertex 55.0179993999997 19.9999993999997 8.00000562635076
   endloop
endfacet
facet normal 0.258864833081409 0.965913556273917 9.18583804442322e-08
   outer loop
      vertex 55.0179999999999 19.9999999999997 5.62635080380014e-06
      vertex 56.7679993999998 19.5309993999997 8.00000572242579
      vertex 56.7679999999999 19.5309999999996 5.72242583235516e-06
   endloop
endfacet
facet normal 7.65927142091836e-24 0.999999999999997 7.49999970982297e-08
   outer loop
      vertex 55.0179993999997 19.9999993999997 8.00000562635076
      vertex -24.859 20.0000000000001 -3.64425444465688e-07
      vertex -24.8590006000001 19.9999994000001 7.99999963557452
   endloop
endfacet
facet normal 7.65927142091836e-24 0.999999999999997 7.49999970982297e-08
   outer loop
      vertex -24.859 20.0000000000001 -3.64425444465688e-07
      vertex 55.0179993999997 19.9999993999997 8.00000562635076
      vertex 55.0179999999999 19.9999999999997 5.62635080380014e-06
   endloop
endfacet
facet normal -0.82947547515528 0.558543137202421 -2.03199399299574e-08
   outer loop
      vertex -24.859 20.0000000000001 -3.64425444465688e-07
      vertex -26.3660006000001 17.7619994000001 7.9999993546995
      vertex -24.8590006000001 19.9999994000001 7.99999963557452
   endloop
endfacet
facet normal -0.82947547515528 0.558543137202421 -2.03199399299574e-08
   outer loop
      vertex -26.3660006000001 17.7619994000001 7.9999993546995
      vertex -24.859 20.0000000000001 -3.64425444465688e-07
      vertex -26.366 17.7620000000001 -6.45300461626919e-07
   endloop
endfacet
facet normal -0.911706496901819 0.410842139400297 -3.75648422525881e-08
   outer loop
      vertex -26.366 17.7620000000001 -6.45300461626919e-07
      vertex -27.4750006000001 15.3009994000001 7.99999908694949
      vertex -26.3660006000001 17.7619994000001 7.9999993546995
   endloop
endfacet
facet normal -0.911706496901819 0.410842139400297 -3.75648422525881e-08
   outer loop
      vertex -27.4750006000001 15.3009994000001 7.99999908694949
      vertex -26.366 17.7620000000001 -6.45300461626919e-07
      vertex -27.4749999999999 15.3010000000001 -9.13050472833854e-07
   endloop
endfacet
facet normal -0.967833334520082 0.251592202962921 -5.37181007217834e-08
   outer loop
      vertex -27.4749999999999 15.3010000000001 -9.13050472833854e-07
      vertex -28.1540006000001 12.6889994000002 7.99999884012449
      vertex -27.4750006000001 15.3009994000001 7.99999908694949
   endloop
endfacet
facet normal -0.967833334520082 0.251592202962921 -5.37181007217834e-08
   outer loop
      vertex -28.1540006000001 12.6889994000002 7.99999884012449
      vertex -27.4749999999999 15.3010000000001 -9.13050472833854e-07
      vertex -28.154 12.6890000000001 -1.15987547547047e-06
   endloop
endfacet
facet normal -0.996424604724116 0.0844867273622586 -6.83953566190475e-08
   outer loop
      vertex -28.154 12.6890000000001 -1.15987547547047e-06
      vertex -28.3820006000001 9.99999940000016 7.99999862134949
      vertex -28.1540006000001 12.6889994000002 7.99999884012449
   endloop
endfacet
facet normal -0.996424604724116 0.0844867273622586 -6.83953566190475e-08
   outer loop
      vertex -28.3820006000001 9.99999940000016 7.99999862134949
      vertex -28.154 12.6890000000001 -1.15987547547047e-06
      vertex -28.382 10.0000000000001 -1.37865047101782e-06
   endloop
endfacet
facet normal -0.951057081836286 0.309015253812892 -4.81531528612063e-08
   outer loop
      vertex -28.382 10.0000000000001 -1.37865047101782e-06
      vertex -28.9740006000001 8.17799940000017 7.99999844029949
      vertex -28.3820006000001 9.99999940000016 7.99999862134949
   endloop
endfacet
facet normal -0.951057081836286 0.309015253812892 -4.81531528612063e-08
   outer loop
      vertex -28.9740006000001 8.17799940000017 7.99999844029949
      vertex -28.382 10.0000000000001 -1.37865047101782e-06
      vertex -28.974 8.17800000000014 -1.55970047524545e-06
   endloop
endfacet
facet normal -0.58773710885142 0.809051970443787 1.65986030868114e-08
   outer loop
      vertex -28.9740006000001 8.17799940000017 7.99999844029949
      vertex -30.5239999999999 7.05200000000016 -1.76040049659765e-06
      vertex -30.5240006000001 7.05199940000018 7.99999823959947
   endloop
endfacet
facet normal -0.58773710885142 0.809051970443787 1.65986030868114e-08
   outer loop
      vertex -30.5239999999999 7.05200000000016 -1.76040049659765e-06
      vertex -28.9740006000001 8.17799940000017 7.99999844029949
      vertex -28.974 8.17800000000014 -1.55970047524545e-06
   endloop
endfacet
facet normal 7.65927142091836e-24 0.999999999999997 7.49999970982297e-08
   outer loop
      vertex -30.5240006000001 7.05199940000018 7.99999823959947
      vertex -32.4399999999999 7.05200000000017 -1.90410052627321e-06
      vertex -32.4400006000001 7.05199940000019 7.99999809589944
   endloop
endfacet
facet normal 7.65927142091836e-24 0.999999999999997 7.49999970982297e-08
   outer loop
      vertex -32.4399999999999 7.05200000000017 -1.90410052627321e-06
      vertex -30.5240006000001 7.05199940000018 7.99999823959947
      vertex -30.5239999999999 7.05200000000016 -1.76040049659765e-06
   endloop
endfacet
facet normal 0.58773710885142 0.80905197044378 1.04759187784391e-07
   outer loop
      vertex -32.4400006000001 7.05199940000019 7.99999809589944
      vertex -33.99 8.17800000000017 -1.93590055369564e-06
      vertex -33.9900006000001 8.17799940000019 7.99999806409941
   endloop
endfacet
facet normal 0.58773710885142 0.80905197044378 1.04759187784391e-07
   outer loop
      vertex -33.99 8.17800000000017 -1.93590055369564e-06
      vertex -32.4400006000001 7.05199940000019 7.99999809589944
      vertex -32.4399999999999 7.05200000000017 -1.90410052627321e-06
   endloop
endfacet
facet normal 0.951057081836285 0.309015253812882 9.4505439139757e-08
   outer loop
      vertex -33.99 8.17800000000017 -1.93590055369564e-06
      vertex -34.5820006 9.9999994000002 7.99999815634939
      vertex -33.9900006000001 8.17799940000019 7.99999806409941
   endloop
endfacet
facet normal 0.951057081836285 0.309015253812882 9.4505439139757e-08
   outer loop
      vertex -34.5820006 9.9999994000002 7.99999815634939
      vertex -33.99 8.17800000000017 -1.93590055369564e-06
      vertex -34.5819999999999 10.0000000000002 -1.84365056786206e-06
   endloop
endfacet
facet normal 0.996963546080929 -0.0778696846387307 6.89320554142942e-08
   outer loop
      vertex -34.5819999999999 10.0000000000002 -1.84365056786206e-06
      vertex -34.3130006000001 13.4439994000002 7.99999843482439
      vertex -34.5820006 9.9999994000002 7.99999815634939
   endloop
endfacet
facet normal 0.996963546080929 -0.0778696846387307 6.89320554142942e-08
   outer loop
      vertex -34.3130006000001 13.4439994000002 7.99999843482439
      vertex -34.5819999999999 10.0000000000002 -1.84365056786206e-06
      vertex -34.3129999999999 13.4440000000002 -1.56517557411973e-06
   endloop
endfacet
facet normal 0.972691202343189 -0.232103047985497 5.5544127451187e-08
   outer loop
      vertex -34.3129999999999 13.4440000000002 -1.56517557411973e-06
      vertex -33.5110006 16.8049994000002 7.99999874704939
      vertex -34.3130006000001 13.4439994000002 7.99999843482439
   endloop
endfacet
facet normal 0.972691202343189 -0.232103047985497 5.5544127451187e-08
   outer loop
      vertex -33.5110006 16.8049994000002 7.99999874704939
      vertex -34.3129999999999 13.4440000000002 -1.56517557411973e-06
      vertex -33.5109999999999 16.8050000000002 -1.25295057080699e-06
   endloop
endfacet
facet normal 0.92473802873513 -0.380604227789268 4.0810050626822e-08
   outer loop
      vertex -33.5109999999999 16.8050000000002 -1.25295057080699e-06
      vertex -32.1960006 19.9999994000002 7.9999990852994
      vertex -33.5110006 16.8049994000002 7.99999874704939
   endloop
endfacet
facet normal 0.92473802873513 -0.380604227789268 4.0810050626822e-08
   outer loop
      vertex -32.1960006 19.9999994000002 7.9999990852994
      vertex -33.5109999999999 16.8050000000002 -1.25295057080699e-06
      vertex -32.1959999999999 20.0000000000001 -9.14700559301318e-07
   endloop
endfacet
facet normal 7.65927142091836e-24 0.999999999999997 7.49999970982297e-08
   outer loop
      vertex -32.1960006 19.9999994000002 7.9999990852994
      vertex -39.4819999999999 20.0000000000002 -1.46115067301e-06
      vertex -39.4820006 19.9999994000002 7.99999853884929
   endloop
endfacet
facet normal 7.65927142091836e-24 0.999999999999997 7.49999970982297e-08
   outer loop
      vertex -39.4819999999999 20.0000000000002 -1.46115067301e-06
      vertex -32.1960006 19.9999994000002 7.9999990852994
      vertex -32.1959999999999 20.0000000000001 -9.14700559301318e-07
   endloop
endfacet
facet normal -0.104759486051765 0.994497586765381 6.67303530305762e-08
   outer loop
      vertex -39.4820006 19.9999994000002 7.99999853884929
      vertex -41.5609999999999 19.7810000000002 -1.63350070487844e-06
      vertex -41.5610006 19.7809994000002 7.99999836649926
   endloop
endfacet
facet normal -0.104759486051765 0.994497586765381 6.67303530305762e-08
   outer loop
      vertex -41.5609999999999 19.7810000000002 -1.63350070487844e-06
      vertex -39.4820006 19.9999994000002 7.99999853884929
      vertex -39.4819999999999 20.0000000000002 -1.46115067301e-06
   endloop
endfacet
facet normal -0.309042802877424 0.951048130217216 4.81503919611573e-08
   outer loop
      vertex -41.5610006 19.7809994000002 7.99999836649926
      vertex -43.5489999999999 19.1350000000002 -1.83105073484069e-06
      vertex -43.5490006 19.1349994000002 7.99999816894923
   endloop
endfacet
facet normal -0.309042802877424 0.951048130217216 4.81503919611573e-08
   outer loop
      vertex -43.5489999999999 19.1350000000002 -1.83105073484069e-06
      vertex -41.5610006 19.7809994000002 7.99999836649926
      vertex -41.5609999999999 19.7810000000002 -1.63350070487844e-06
   endloop
endfacet
facet normal -0.499791458578527 0.866145771756665 2.74765631644525e-08
   outer loop
      vertex -43.5490006 19.1349994000002 7.99999816894923
      vertex -45.3599999999999 18.0900000000002 -2.04525075988005e-06
      vertex -45.3600006 18.0899994000002 7.9999979547492
   endloop
endfacet
facet normal -0.499791458578527 0.866145771756665 2.74765631644525e-08
   outer loop
      vertex -45.3599999999999 18.0900000000002 -2.04525075988005e-06
      vertex -43.5490006 19.1349994000002 7.99999816894923
      vertex -43.5489999999999 19.1350000000002 -1.83105073484069e-06
   endloop
endfacet
facet normal -0.669308276045326 0.742984812507788 5.5257276190168e-09
   outer loop
      vertex -45.3600006 18.0899994000002 7.9999979547492
      vertex -46.9129999999999 16.6910000000002 -2.26665077974197e-06
      vertex -46.9130006 16.6909994000002 7.99999773334918
   endloop
endfacet
facet normal -0.669308276045326 0.742984812507788 5.5257276190168e-09
   outer loop
      vertex -46.9129999999999 16.6910000000002 -2.26665077974197e-06
      vertex -45.3600006 18.0899994000002 7.9999979547492
      vertex -45.3599999999999 18.0900000000002 -2.04525075988005e-06
   endloop
endfacet
facet normal -0.808922219886814 0.587915676073864 -1.6575505133498e-08
   outer loop
      vertex -46.9129999999999 16.6910000000002 -2.26665077974197e-06
      vertex -48.1420006 14.9999994000003 7.99999751434917
      vertex -46.9130006 16.6909994000002 7.99999773334918
   endloop
endfacet
facet normal -0.808922219886814 0.587915676073864 -1.6575505133498e-08
   outer loop
      vertex -48.1420006 14.9999994000003 7.99999751434917
      vertex -46.9129999999999 16.6910000000002 -2.26665077974197e-06
      vertex -48.1419999999999 15.0000000000002 -2.48565079451479e-06
   endloop
endfacet
facet normal -0.913436456999417 0.406981374296602 -3.79841466585171e-08
   outer loop
      vertex -48.1419999999999 15.0000000000002 -2.48565079451479e-06
      vertex -48.9930006 13.0899994000003 7.99999730727416
      vertex -48.1420006 14.9999994000003 7.99999751434917
   endloop
endfacet
facet normal -0.913436456999417 0.406981374296602 -3.79841466585171e-08
   outer loop
      vertex -48.9930006 13.0899994000003 7.99999730727416
      vertex -48.1419999999999 15.0000000000002 -2.48565079451479e-06
      vertex -48.9929999999999 13.0900000000002 -2.69272580200042e-06
   endloop
endfacet
facet normal -0.978213523748353 0.207601305284497 -5.77959322743517e-08
   outer loop
      vertex -48.9929999999999 13.0900000000002 -2.69272580200042e-06
      vertex -49.4270006 11.0449994000003 7.99999712134916
      vertex -48.9930006 13.0899994000003 7.99999730727416
   endloop
endfacet
facet normal -0.978213523748353 0.207601305284497 -5.77959322743517e-08
   outer loop
      vertex -49.4270006 11.0449994000003 7.99999712134916
      vertex -48.9929999999999 13.0900000000002 -2.69272580200042e-06
      vertex -49.4269999999999 11.0450000000003 -2.87865080284e-06
   endloop
endfacet
facet normal 0.987689531030769 0.156426948740337 8.58087509646155e-08
   outer loop
      vertex 41.8961999999999 9.47466999999975 3.8528158783302e-06
      vertex 41.8129996249998 9.99999962499976 5.00000388597559
      vertex 41.8961996249998 9.47466962499976 5.00000385281585
   endloop
endfacet
facet normal 0.987689531030769 0.156426948740337 8.58087509646155e-08
   outer loop
      vertex 41.8129996249998 9.99999962499976 5.00000388597559
      vertex 41.8961999999999 9.47466999999975 3.8528158783302e-06
      vertex 41.8129999999999 9.99999999999974 3.88597562591131e-06
   endloop
endfacet
facet normal 0.987689531030769 -0.156426948740348 6.23447095609353e-08
   outer loop
      vertex 41.8129999999999 9.99999999999974 3.88597562591131e-06
      vertex 41.8961996249998 10.5253296249998 5.00000393161534
      vertex 41.8129996249998 9.99999962499976 5.00000388597559
   endloop
endfacet
facet normal 0.987689531030769 -0.156426948740348 6.23447095609353e-08
   outer loop
      vertex 41.8961996249998 10.5253296249998 5.00000393161534
      vertex 41.8129999999999 9.99999999999974 3.88597562591131e-06
      vertex 41.8961999999999 10.5253299999997 3.93161537556308e-06
   endloop
endfacet
facet normal 0.890979228040479 -0.454044067465252 3.27701522845601e-08
   outer loop
      vertex 41.8961999999999 10.5253299999997 3.93161537556308e-06
      vertex 42.1376996249998 10.9992296249998 5.00000398527035
      vertex 41.8961996249998 10.5253296249998 5.00000393161534
   endloop
endfacet
facet normal 0.890979228040479 -0.454044067465252 3.27701522845601e-08
   outer loop
      vertex 42.1376996249998 10.9992296249998 5.00000398527035
      vertex 41.8961999999999 10.5253299999997 3.93161537556308e-06
      vertex 42.1376999999999 10.9992299999997 3.98527037798746e-06
   endloop
endfacet
facet normal 0.707106781186553 -0.707106781186542 1.31001850534919e-14
   outer loop
      vertex 42.1376999999999 10.9992299999997 3.98527037798746e-06
      vertex 42.5137996249998 11.3753296249998 5.00000404168535
      vertex 42.1376996249998 10.9992296249998 5.00000398527035
   endloop
endfacet
facet normal 0.707106781186553 -0.707106781186542 1.31001850534919e-14
   outer loop
      vertex 42.5137996249998 11.3753296249998 5.00000404168535
      vertex 42.1376999999999 10.9992299999997 3.98527037798746e-06
      vertex 42.5137999999999 11.3753299999997 4.04168538242211e-06
   endloop
endfacet
facet normal 0.453999290571092 -0.891002044981348 -3.27751969003568e-08
   outer loop
      vertex 42.9876999999999 11.6167999999997 4.09533813874319e-06
      vertex 42.5137996249998 11.3753296249998 5.00000404168535
      vertex 42.5137999999999 11.3753299999997 4.04168538242211e-06
   endloop
endfacet
facet normal 0.453999290571092 -0.891002044981348 -3.27751969003568e-08
   outer loop
      vertex 42.5137996249998 11.3753296249998 5.00000404168535
      vertex 42.9876999999999 11.6167999999997 4.09533813874319e-06
      vertex 42.9876996249999 11.6167996249997 5.00000409533811
   endloop
endfacet
facet normal 0.156435663700748 -0.987688150745215 -6.23439312171148e-08
   outer loop
      vertex 43.5129999999999 11.6999999999997 4.1409756472266e-06
      vertex 42.9876996249999 11.6167996249997 5.00000409533811
      vertex 42.9876999999999 11.6167999999997 4.09533813874319e-06
   endloop
endfacet
facet normal 0.156435663700748 -0.987688150745215 -6.23439312171148e-08
   outer loop
      vertex 42.9876996249999 11.6167996249997 5.00000409533811
      vertex 43.5129999999999 11.6999999999997 4.1409756472266e-06
      vertex 43.5129996249998 11.6999996249997 5.00000414097562
   endloop
endfacet
facet normal -0.156435663700748 -0.987688150745213 -8.58092856616617e-08
   outer loop
      vertex 44.0382999999999 11.6167999999997 4.17413315575432e-06
      vertex 43.5129996249998 11.6999996249997 5.00000414097562
      vertex 43.5129999999999 11.6999999999997 4.1409756472266e-06
   endloop
endfacet
facet normal -0.156435663700748 -0.987688150745213 -8.58092856616617e-08
   outer loop
      vertex 43.5129996249998 11.6999996249997 5.00000414097562
      vertex 44.0382999999999 11.6167999999997 4.17413315575432e-06
      vertex 44.0382996249998 11.6167996249997 5.00000417413312
   endloop
endfacet
facet normal -0.453999290571092 -0.891002044981343 -1.00875104675879e-07
   outer loop
      vertex 44.5121999999999 11.3753299999997 4.19156541376364e-06
      vertex 44.0382996249998 11.6167996249997 5.00000417413312
      vertex 44.0382999999999 11.6167999999997 4.17413315575432e-06
   endloop
endfacet
facet normal -0.453999290571092 -0.891002044981343 -1.00875104675879e-07
   outer loop
      vertex 44.0382996249998 11.6167996249997 5.00000417413312
      vertex 44.5121999999999 11.3753299999997 4.19156541376364e-06
      vertex 44.5121996249998 11.3753296249997 5.00000419156538
   endloop
endfacet
facet normal -0.707106781186553 -0.707106781186534 -1.06066026178592e-07
   outer loop
      vertex 44.5121999999999 11.3753299999997 4.19156541376364e-06
      vertex 44.8882996249998 10.9992296249997 5.00000419156539
      vertex 44.5121996249998 11.3753296249997 5.00000419156538
   endloop
endfacet
facet normal -0.707106781186553 -0.707106781186534 -1.06066026178592e-07
   outer loop
      vertex 44.8882996249998 10.9992296249997 5.00000419156539
      vertex 44.5121999999999 11.3753299999997 4.19156541376364e-06
      vertex 44.8882999999999 10.9992299999997 4.19156542081356e-06
   endloop
endfacet
facet normal -0.890979228040488 -0.454044067465225 -1.00876759769284e-07
   outer loop
      vertex 44.8882999999999 10.9992299999997 4.19156542081356e-06
      vertex 45.1297996249998 10.5253296249997 5.00000417413539
      vertex 44.8882996249998 10.9992296249997 5.00000419156539
   endloop
endfacet
facet normal -0.890979228040488 -0.454044067465225 -1.00876759769284e-07
   outer loop
      vertex 45.1297996249998 10.5253296249997 5.00000417413539
      vertex 44.8882999999999 10.9992299999997 4.19156542081356e-06
      vertex 45.1297999999999 10.5253299999997 4.17413542582734e-06
   endloop
endfacet
facet normal -0.987689531030769 -0.156426948740337 -8.58087509641566e-08
   outer loop
      vertex 45.1297999999999 10.5253299999997 4.17413542582734e-06
      vertex 45.2129996249998 9.99999962499974 5.00000414097565
      vertex 45.1297996249998 10.5253296249997 5.00000417413539
   endloop
endfacet
facet normal -0.987689531030769 -0.156426948740337 -8.58087509641566e-08
   outer loop
      vertex 45.2129996249998 9.99999962499974 5.00000414097565
      vertex 45.1297999999999 10.5253299999997 4.17413542582734e-06
      vertex 45.2129999999999 9.99999999999972 4.14097567895122e-06
   endloop
endfacet
facet normal -0.987689531030769 0.156426948740348 -6.23447095604764e-08
   outer loop
      vertex 45.2129999999999 9.99999999999972 4.14097567895122e-06
      vertex 45.1297996249998 9.47466962499974 5.0000040953359
      vertex 45.2129996249998 9.99999962499974 5.00000414097565
   endloop
endfacet
facet normal -0.987689531030769 0.156426948740348 -6.23447095604764e-08
   outer loop
      vertex 45.1297996249998 9.47466962499974 5.0000040953359
      vertex 45.2129999999999 9.99999999999972 4.14097567895122e-06
      vertex 45.1297999999999 9.47466999999973 4.09533592859446e-06
   endloop
endfacet
facet normal -0.890979228040488 0.454044067465235 -3.2770152284562e-08
   outer loop
      vertex 45.1297999999999 9.47466999999973 4.09533592859446e-06
      vertex 44.8882996249998 9.00076962499974 5.00000404168089
      vertex 45.1297996249998 9.47466962499974 5.0000040953359
   endloop
endfacet
facet normal -0.890979228040488 0.454044067465235 -3.2770152284562e-08
   outer loop
      vertex 44.8882996249998 9.00076962499974 5.00000404168089
      vertex 45.1297999999999 9.47466999999973 4.09533592859446e-06
      vertex 44.8882999999999 9.00076999999973 4.04168092617008e-06
   endloop
endfacet
facet normal -0.707106781186553 0.707106781186542 -1.31022596133626e-14
   outer loop
      vertex 44.8882999999999 9.00076999999973 4.04168092617008e-06
      vertex 44.5121996249998 8.62466962499975 5.00000398526589
      vertex 44.8882996249998 9.00076962499974 5.00000404168089
   endloop
endfacet
facet normal -0.707106781186553 0.707106781186542 -1.31022596133626e-14
   outer loop
      vertex 44.5121996249998 8.62466962499975 5.00000398526589
      vertex 44.8882999999999 9.00076999999973 4.04168092617008e-06
      vertex 44.5121999999999 8.62466999999973 3.98526592173543e-06
   endloop
endfacet
facet normal -0.453999290571092 0.891002044981348 3.27751968990498e-08
   outer loop
      vertex 44.5121996249998 8.62466962499975 5.00000398526589
      vertex 44.0382999999999 8.38319999999974 3.93161316541435e-06
      vertex 44.0382996249998 8.38319962499975 5.00000393161313
   endloop
endfacet
facet normal -0.453999290571092 0.891002044981348 3.27751968990498e-08
   outer loop
      vertex 44.0382999999999 8.38319999999974 3.93161316541435e-06
      vertex 44.5121996249998 8.62466962499975 5.00000398526589
      vertex 44.5121999999999 8.62466999999973 3.98526592173543e-06
   endloop
endfacet
facet normal -0.156435663700749 0.987688150745215 6.23439312171146e-08
   outer loop
      vertex 44.0382996249998 8.38319962499975 5.00000393161313
      vertex 43.5129999999999 8.29999999999974 3.88597565693094e-06
      vertex 43.5129996249998 8.29999962499975 5.00000388597562
   endloop
endfacet
facet normal -0.156435663700749 0.987688150745215 6.23439312171146e-08
   outer loop
      vertex 43.5129999999999 8.29999999999974 3.88597565693094e-06
      vertex 44.0382996249998 8.38319962499975 5.00000393161313
      vertex 44.0382999999999 8.38319999999974 3.93161316541435e-06
   endloop
endfacet
facet normal 0.156435663700749 0.987688150745213 8.58092856625797e-08
   outer loop
      vertex 43.5129996249998 8.29999962499975 5.00000388597562
      vertex 42.9876999999999 8.38319999999974 3.85281814840321e-06
      vertex 42.9876996249999 8.38319962499976 5.00000385281812
   endloop
endfacet
facet normal 0.156435663700749 0.987688150745213 8.58092856625797e-08
   outer loop
      vertex 42.9876999999999 8.38319999999974 3.85281814840321e-06
      vertex 43.5129996249998 8.29999962499975 5.00000388597562
      vertex 43.5129999999999 8.29999999999974 3.88597565693094e-06
   endloop
endfacet
facet normal 0.453999290571092 0.891002044981343 1.00875104677186e-07
   outer loop
      vertex 42.9876996249999 8.38319962499976 5.00000385281812
      vertex 42.5137999999999 8.62466999999974 3.83538589039389e-06
      vertex 42.5137996249998 8.62466962499976 5.00000383538586
   endloop
endfacet
facet normal 0.453999290571092 0.891002044981343 1.00875104677186e-07
   outer loop
      vertex 42.5137999999999 8.62466999999974 3.83538589039389e-06
      vertex 42.9876996249999 8.38319962499976 5.00000385281812
      vertex 42.9876999999999 8.38319999999974 3.85281814840321e-06
   endloop
endfacet
facet normal 0.707106781186553 0.707106781186534 1.06066026176518e-07
   outer loop
      vertex 42.5137999999999 8.62466999999974 3.83538589039389e-06
      vertex 42.1376996249998 9.00076962499976 5.00000383538585
      vertex 42.5137996249998 8.62466962499976 5.00000383538586
   endloop
endfacet
facet normal 0.707106781186553 0.707106781186534 1.06066026176518e-07
   outer loop
      vertex 42.1376996249998 9.00076962499976 5.00000383538585
      vertex 42.5137999999999 8.62466999999974 3.83538589039389e-06
      vertex 42.1376999999999 9.00076999999974 3.83538588334398e-06
   endloop
endfacet
facet normal 0.890979228040479 0.454044067465243 1.00876759769284e-07
   outer loop
      vertex 42.1376999999999 9.00076999999974 3.83538588334398e-06
      vertex 41.8961996249998 9.47466962499976 5.00000385281585
      vertex 42.1376996249998 9.00076962499976 5.00000383538585
   endloop
endfacet
facet normal 0.890979228040479 0.454044067465243 1.00876759769284e-07
   outer loop
      vertex 41.8961996249998 9.47466962499976 5.00000385281585
      vertex 42.1376999999999 9.00076999999974 3.83538588334398e-06
      vertex 41.8961999999999 9.47466999999975 3.8528158783302e-06
   endloop
endfacet
facet normal 0.866025556903245 0.499999734790343 1.02451908960055e-07
   outer loop
      vertex 41.9754996249998 7.33696962499976 5.00000369843585
      vertex 40.4379993999998 9.99999939999977 8.00000378285057
      vertex 41.9754993999998 7.33696939999977 8.00000369843585
   endloop
endfacet
facet normal 0.866025556903245 0.499999734790343 1.02451908960055e-07
   outer loop
      vertex 40.4379993999998 9.99999939999977 8.00000378285057
      vertex 41.9754996249998 7.33696962499976 5.00000369843585
      vertex 40.4379996249998 9.99999962499976 5.00000378285057
   endloop
endfacet
facet normal 7.65927142091836e-24 0.999999999999997 7.49999970982297e-08
   outer loop
      vertex 45.0504993999998 7.33696939999975 8.0000039290609
      vertex 41.9754996249998 7.33696962499976 5.00000369843585
      vertex 41.9754993999998 7.33696939999977 8.00000369843585
   endloop
endfacet
facet normal 7.65927142091836e-24 0.999999999999997 7.49999970982297e-08
   outer loop
      vertex 41.9754996249998 7.33696962499976 5.00000369843585
      vertex 45.0504993999998 7.33696939999975 8.0000039290609
      vertex 45.0504996249998 7.33696962499975 5.0000039290609
   endloop
endfacet
facet normal -0.866025556903247 0.49999973479035 -2.74519516432716e-08
   outer loop
      vertex 46.5879996249998 9.99999962499973 5.00000424410067
      vertex 45.0504993999998 7.33696939999975 8.0000039290609
      vertex 46.5879993999998 9.99999939999974 8.00000424410066
   endloop
endfacet
facet normal -0.866025556903247 0.49999973479035 -2.74519516432716e-08
   outer loop
      vertex 45.0504993999998 7.33696939999975 8.0000039290609
      vertex 46.5879996249998 9.99999962499973 5.00000424410067
      vertex 45.0504996249998 7.33696962499975 5.0000039290609
   endloop
endfacet
facet normal -0.866025394301743 -0.500000016424501 -1.024519179038e-07
   outer loop
      vertex 45.0504996249998 12.6630276249997 5.00000432851524
      vertex 46.5879993999998 9.99999939999974 8.00000424410066
      vertex 45.0504993999998 12.6630273999997 8.00000432851523
   endloop
endfacet
facet normal -0.866025394301743 -0.500000016424501 -1.024519179038e-07
   outer loop
      vertex 46.5879993999998 9.99999939999974 8.00000424410066
      vertex 45.0504996249998 12.6630276249997 5.00000432851524
      vertex 46.5879996249998 9.99999962499973 5.00000424410067
   endloop
endfacet
facet normal -7.65927142091836e-24 -0.999999999999997 -7.49999970982297e-08
   outer loop
      vertex 45.0504996249998 12.6630276249997 5.00000432851524
      vertex 41.9754993999998 12.6630273999998 8.00000409789018
      vertex 41.9754996249998 12.6630276249998 5.00000409789019
   endloop
endfacet
facet normal -7.65927142091836e-24 -0.999999999999997 -7.49999970982297e-08
   outer loop
      vertex 41.9754993999998 12.6630273999998 8.00000409789018
      vertex 45.0504996249998 12.6630276249997 5.00000432851524
      vertex 45.0504993999998 12.6630273999997 8.00000432851523
   endloop
endfacet
facet normal 0.866025394301741 -0.500000016424513 2.74519183092955e-08
   outer loop
      vertex 40.4379996249998 9.99999962499976 5.00000378285057
      vertex 41.9754993999998 12.6630273999998 8.00000409789018
      vertex 40.4379993999998 9.99999939999977 8.00000378285057
   endloop
endfacet
facet normal 0.866025394301741 -0.500000016424513 2.74519183092955e-08
   outer loop
      vertex 41.9754993999998 12.6630273999998 8.00000409789018
      vertex 40.4379996249998 9.99999962499976 5.00000378285057
      vertex 41.9754996249998 12.6630276249998 5.00000409789019
   endloop
endfacet
facet normal -7.50000156276216e-08 -7.49999971524395e-08 0.999999999999994
   outer loop
      vertex 45.0504996249998 7.33696962499975 5.0000039290609
      vertex 44.0382996249998 8.38319962499975 5.00000393161313
      vertex 41.9754996249998 7.33696962499976 5.00000369843585
   endloop
endfacet
facet normal -7.50000156276216e-08 -7.49999971524395e-08 0.999999999999994
   outer loop
      vertex 44.0382996249998 8.38319962499975 5.00000393161313
      vertex 45.0504996249998 7.33696962499975 5.0000039290609
      vertex 44.5121996249998 8.62466962499975 5.00000398526589
   endloop
endfacet
facet normal -7.50000156276216e-08 -7.49999971524395e-08 0.999999999999994
   outer loop
      vertex 44.5121996249998 8.62466962499975 5.00000398526589
      vertex 45.0504996249998 7.33696962499975 5.0000039290609
      vertex 46.5879996249998 9.99999962499973 5.00000424410067
   endloop
endfacet
facet normal -7.50000156276216e-08 -7.49999971524395e-08 0.999999999999994
   outer loop
      vertex 41.9754996249998 7.33696962499976 5.00000369843585
      vertex 44.0382996249998 8.38319962499975 5.00000393161313
      vertex 43.5129996249998 8.29999962499975 5.00000388597562
   endloop
endfacet
facet normal -7.50000156276216e-08 -7.49999971524395e-08 0.999999999999994
   outer loop
      vertex 44.5121996249998 8.62466962499975 5.00000398526589
      vertex 46.5879996249998 9.99999962499973 5.00000424410067
      vertex 44.8882996249998 9.00076962499974 5.00000404168089
   endloop
endfacet
facet normal -7.50000156276216e-08 -7.49999971524395e-08 0.999999999999994
   outer loop
      vertex 44.8882996249998 9.00076962499974 5.00000404168089
      vertex 46.5879996249998 9.99999962499973 5.00000424410067
      vertex 45.1297996249998 9.47466962499974 5.0000040953359
   endloop
endfacet
facet normal -7.50000156276216e-08 -7.49999971524395e-08 0.999999999999994
   outer loop
      vertex 45.1297996249998 9.47466962499974 5.0000040953359
      vertex 46.5879996249998 9.99999962499973 5.00000424410067
      vertex 45.2129996249998 9.99999962499974 5.00000414097565
   endloop
endfacet
facet normal -7.50000156276216e-08 -7.49999971524395e-08 0.999999999999994
   outer loop
      vertex 45.2129996249998 9.99999962499974 5.00000414097565
      vertex 46.5879996249998 9.99999962499973 5.00000424410067
      vertex 45.0504996249998 12.6630276249997 5.00000432851524
   endloop
endfacet
facet normal -7.50000156276216e-08 -7.49999971524395e-08 0.999999999999994
   outer loop
      vertex 45.2129996249998 9.99999962499974 5.00000414097565
      vertex 45.0504996249998 12.6630276249997 5.00000432851524
      vertex 45.1297996249998 10.5253296249997 5.00000417413539
   endloop
endfacet
facet normal -7.50000156276216e-08 -7.49999971524395e-08 0.999999999999994
   outer loop
      vertex 45.1297996249998 10.5253296249997 5.00000417413539
      vertex 45.0504996249998 12.6630276249997 5.00000432851524
      vertex 44.8882996249998 10.9992296249997 5.00000419156539
   endloop
endfacet
facet normal -7.50000156276216e-08 -7.49999971524395e-08 0.999999999999994
   outer loop
      vertex 44.8882996249998 10.9992296249997 5.00000419156539
      vertex 45.0504996249998 12.6630276249997 5.00000432851524
      vertex 44.5121996249998 11.3753296249997 5.00000419156538
   endloop
endfacet
facet normal -7.50000156276216e-08 -7.49999971524395e-08 0.999999999999994
   outer loop
      vertex 44.5121996249998 11.3753296249997 5.00000419156538
      vertex 45.0504996249998 12.6630276249997 5.00000432851524
      vertex 44.0382996249998 11.6167996249997 5.00000417413312
   endloop
endfacet
facet normal -7.50000156276216e-08 -7.49999971524395e-08 0.999999999999994
   outer loop
      vertex 44.0382996249998 11.6167996249997 5.00000417413312
      vertex 45.0504996249998 12.6630276249997 5.00000432851524
      vertex 43.5129996249998 11.6999996249997 5.00000414097562
   endloop
endfacet
facet normal -7.50000156276216e-08 -7.49999971524395e-08 0.999999999999994
   outer loop
      vertex 41.9754996249998 7.33696962499976 5.00000369843585
      vertex 42.5137996249998 8.62466962499976 5.00000383538586
      vertex 40.4379996249998 9.99999962499976 5.00000378285057
   endloop
endfacet
facet normal -7.50000156276216e-08 -7.49999971524395e-08 0.999999999999994
   outer loop
      vertex 42.5137996249998 8.62466962499976 5.00000383538586
      vertex 41.9754996249998 7.33696962499976 5.00000369843585
      vertex 42.9876996249999 8.38319962499976 5.00000385281812
   endloop
endfacet
facet normal -7.50000156276216e-08 -7.49999971524395e-08 0.999999999999994
   outer loop
      vertex 42.9876996249999 8.38319962499976 5.00000385281812
      vertex 41.9754996249998 7.33696962499976 5.00000369843585
      vertex 43.5129996249998 8.29999962499975 5.00000388597562
   endloop
endfacet
facet normal -7.50000156276216e-08 -7.49999971524395e-08 0.999999999999994
   outer loop
      vertex 40.4379996249998 9.99999962499976 5.00000378285057
      vertex 42.5137996249998 8.62466962499976 5.00000383538586
      vertex 42.1376996249998 9.00076962499976 5.00000383538585
   endloop
endfacet
facet normal -7.50000156276216e-08 -7.49999971524395e-08 0.999999999999994
   outer loop
      vertex 40.4379996249998 9.99999962499976 5.00000378285057
      vertex 42.1376996249998 9.00076962499976 5.00000383538585
      vertex 41.8961996249998 9.47466962499976 5.00000385281585
   endloop
endfacet
facet normal -7.50000156276216e-08 -7.49999971524395e-08 0.999999999999994
   outer loop
      vertex 40.4379996249998 9.99999962499976 5.00000378285057
      vertex 41.8961996249998 9.47466962499976 5.00000385281585
      vertex 41.8129996249998 9.99999962499976 5.00000388597559
   endloop
endfacet
facet normal -7.50000156276216e-08 -7.49999971524395e-08 0.999999999999994
   outer loop
      vertex 40.4379996249998 9.99999962499976 5.00000378285057
      vertex 41.8129996249998 9.99999962499976 5.00000388597559
      vertex 41.8961996249998 10.5253296249998 5.00000393161534
   endloop
endfacet
facet normal -7.50000156276216e-08 -7.49999971524395e-08 0.999999999999994
   outer loop
      vertex 40.4379996249998 9.99999962499976 5.00000378285057
      vertex 41.8961996249998 10.5253296249998 5.00000393161534
      vertex 41.9754996249998 12.6630276249998 5.00000409789019
   endloop
endfacet
facet normal -7.50000156276216e-08 -7.49999971524395e-08 0.999999999999994
   outer loop
      vertex 41.9754996249998 12.6630276249998 5.00000409789019
      vertex 41.8961996249998 10.5253296249998 5.00000393161534
      vertex 42.1376996249998 10.9992296249998 5.00000398527035
   endloop
endfacet
facet normal -7.50000156276216e-08 -7.49999971524395e-08 0.999999999999994
   outer loop
      vertex 41.9754996249998 12.6630276249998 5.00000409789019
      vertex 42.1376996249998 10.9992296249998 5.00000398527035
      vertex 42.5137996249998 11.3753296249998 5.00000404168535
   endloop
endfacet
facet normal -7.50000156276216e-08 -7.49999971524395e-08 0.999999999999994
   outer loop
      vertex 41.9754996249998 12.6630276249998 5.00000409789019
      vertex 42.5137996249998 11.3753296249998 5.00000404168535
      vertex 42.9876996249999 11.6167996249997 5.00000409533811
   endloop
endfacet
facet normal -7.50000156276216e-08 -7.49999971524395e-08 0.999999999999994
   outer loop
      vertex 41.9754996249998 12.6630276249998 5.00000409789019
      vertex 42.9876996249999 11.6167996249997 5.00000409533811
      vertex 43.5129996249998 11.6999996249997 5.00000414097562
   endloop
endfacet
facet normal -7.50000156276216e-08 -7.49999971524395e-08 0.999999999999994
   outer loop
      vertex 41.9754996249998 12.6630276249998 5.00000409789019
      vertex 43.5129996249998 11.6999996249997 5.00000414097562
      vertex 45.0504996249998 12.6630276249997 5.00000432851524
   endloop
endfacet
endsolid no_name
