solid Z Bar Clamp
facet normal 0.0980236807192704 1.55023213601719e-16 0.995184082478336
   outer loop
      vertex -6000.0 8552.71000000001 2850.00000000001
      vertex -6614.53 12000.0 2910.53
      vertex -6614.53 8552.71000000002 2910.53000000001
   endloop
endfacet
facet normal 0.0980236807192704 1.55023213601719e-16 0.995184082478336
   outer loop
      vertex -6614.53 12000.0 2910.53
      vertex -6000.0 8552.71000000001 2850.00000000001
      vertex -6000.0 12000.0 2850.00000000001
   endloop
endfacet
facet normal 0.290279305592302 2.51150001801519e-16 0.956941965191647
   outer loop
      vertex -6614.53 8552.71000000002 2910.53000000001
      vertex -7205.45 12000.0 3089.78
      vertex -7205.45 8552.71000000001 3089.78
   endloop
endfacet
facet normal 0.290279305592302 2.51150001801519e-16 0.956941965191647
   outer loop
      vertex -7205.45 12000.0 3089.78
      vertex -6614.53 8552.71000000002 2910.53000000001
      vertex -6614.53 12000.0 2910.53
   endloop
endfacet
facet normal 0.471390735542292 2.78729431465771e-16 0.881924472075073
   outer loop
      vertex -7205.45 8552.71000000001 3089.78
      vertex -7750.05 12000.0 3380.87
      vertex -7750.05 8552.71000000001 3380.87000000001
   endloop
endfacet
facet normal 0.471390735542292 2.78729431465771e-16 0.881924472075073
   outer loop
      vertex -7750.05 12000.0 3380.87
      vertex -7205.45 8552.71000000001 3089.78
      vertex -7205.45 12000.0 3089.78
   endloop
endfacet
facet normal 0.634390561108526 4.03199219295197e-16 0.773012688108293
   outer loop
      vertex -7750.05 8552.71000000001 3380.87000000001
      vertex -8227.39 12000.0 3772.61
      vertex -8227.39 8552.71000000001 3772.61000000001
   endloop
endfacet
facet normal 0.634390561108526 4.03199219295197e-16 0.773012688108293
   outer loop
      vertex -8227.39 12000.0 3772.61
      vertex -7750.05 8552.71000000001 3380.87000000001
      vertex -7750.05 12000.0 3380.87
   endloop
endfacet
facet normal 0.773012688108293 2.65755616417528e-16 0.634390561108527
   outer loop
      vertex -8227.39 12000.0 3772.61
      vertex -8619.13 8552.71000000001 4249.95000000001
      vertex -8227.39 8552.71000000001 3772.61000000001
   endloop
endfacet
facet normal 0.773012688108293 2.65755616417528e-16 0.634390561108527
   outer loop
      vertex -8619.13 8552.71000000001 4249.95000000001
      vertex -8227.39 12000.0 3772.61
      vertex -8619.13 12000.0 4249.95
   endloop
endfacet
facet normal 0.881924472075073 1.98965830734259e-16 0.471390735542293
   outer loop
      vertex -8619.13 8552.71000000001 4249.95000000001
      vertex -8910.22 12000.0 4794.55
      vertex -8910.22 8552.71000000001 4794.55000000001
   endloop
endfacet
facet normal 0.881924472075073 1.98965830734259e-16 0.471390735542293
   outer loop
      vertex -8910.22 12000.0 4794.55
      vertex -8619.13 8552.71000000001 4249.95000000001
      vertex -8619.13 12000.0 4249.95
   endloop
endfacet
facet normal 0.956941965191646 2.88022324562334e-17 0.290279305592303
   outer loop
      vertex -8910.22 12000.0 4794.55
      vertex -9089.47 8552.71000000001 5385.47
      vertex -8910.22 8552.71000000001 4794.55000000001
   endloop
endfacet
facet normal 0.956941965191646 2.88022324562334e-17 0.290279305592303
   outer loop
      vertex -9089.47 8552.71000000001 5385.47
      vertex -8910.22 12000.0 4794.55
      vertex -9089.47 12000.0 5385.47
   endloop
endfacet
facet normal 0.995184082478336 -2.02199248480595e-17 0.0980236807192687
   outer loop
      vertex -9089.47 8552.71000000001 5385.47
      vertex -9150.0 12000.0 6000.00000000001
      vertex -9150.0 8552.71000000001 6000.00000000001
   endloop
endfacet
facet normal 0.995184082478336 -2.02199248480595e-17 0.0980236807192687
   outer loop
      vertex -9150.0 12000.0 6000.00000000001
      vertex -9089.47 8552.71000000001 5385.47
      vertex -9089.47 12000.0 5385.47
   endloop
endfacet
facet normal 0.995184082478336 1.10527210037099e-17 -0.0980236807192688
   outer loop
      vertex -9150.0 12000.0 6000.00000000001
      vertex -9089.47 8552.71000000001 6614.53000000001
      vertex -9150.0 8552.71000000001 6000.00000000001
   endloop
endfacet
facet normal 0.995184082478336 1.10527210037099e-17 -0.0980236807192688
   outer loop
      vertex -9089.47 8552.71000000001 6614.53000000001
      vertex -9150.0 12000.0 6000.00000000001
      vertex -9089.47 12000.0 6614.53000000001
   endloop
endfacet
facet normal 0.956941965191646 -6.1976838280284e-17 -0.290279305592304
   outer loop
      vertex -9089.47 8552.71000000001 6614.53000000001
      vertex -8910.22 12000.0 7205.45
      vertex -8910.22 8552.71000000001 7205.45000000001
   endloop
endfacet
facet normal 0.956941965191646 -6.1976838280284e-17 -0.290279305592304
   outer loop
      vertex -8910.22 12000.0 7205.45
      vertex -9089.47 8552.71000000001 6614.53000000001
      vertex -9089.47 12000.0 6614.53000000001
   endloop
endfacet
facet normal 0.881924472075073 -9.77926883983616e-17 -0.471390735542293
   outer loop
      vertex -8910.22 12000.0 7205.45
      vertex -8619.13 8552.71000000001 7750.05000000001
      vertex -8910.22 8552.71000000001 7205.45000000001
   endloop
endfacet
facet normal 0.881924472075073 -9.77926883983616e-17 -0.471390735542293
   outer loop
      vertex -8619.13 8552.71000000001 7750.05000000001
      vertex -8910.22 12000.0 7205.45
      vertex -8619.13 12000.0 7750.05000000001
   endloop
endfacet
facet normal 0.773012688108295 -5.31903434807006e-16 -0.634390561108524
   outer loop
      vertex -8619.13 8552.71000000001 7750.05000000001
      vertex -8227.39 12000.0 8227.39
      vertex -8227.39 8552.71000000001 8227.39000000001
   endloop
endfacet
facet normal 0.773012688108295 -5.31903434807006e-16 -0.634390561108524
   outer loop
      vertex -8227.39 12000.0 8227.39
      vertex -8619.13 8552.71000000001 7750.05000000001
      vertex -8619.13 12000.0 7750.05000000001
   endloop
endfacet
facet normal 0.634390561108524 -9.70846206702104e-16 -0.773012688108295
   outer loop
      vertex -7750.05 12000.0 8619.13000000001
      vertex -8227.39 8552.71000000001 8227.39000000001
      vertex -8227.39 12000.0 8227.39
   endloop
endfacet
facet normal 0.634390561108524 -9.70846206702104e-16 -0.773012688108295
   outer loop
      vertex -8227.39 8552.71000000001 8227.39000000001
      vertex -7750.05 12000.0 8619.13000000001
      vertex -7750.05 8552.71000000001 8619.13000000001
   endloop
endfacet
facet normal 0.471390735542294 -9.25997806243351e-16 -0.881924472075072
   outer loop
      vertex -7205.45 12000.0 8910.22
      vertex -7750.05 8552.71000000001 8619.13000000001
      vertex -7750.05 12000.0 8619.13000000001
   endloop
endfacet
facet normal 0.471390735542294 -9.25997806243351e-16 -0.881924472075072
   outer loop
      vertex -7750.05 8552.71000000001 8619.13000000001
      vertex -7205.45 12000.0 8910.22
      vertex -7205.45 8552.71000000001 8910.22000000001
   endloop
endfacet
facet normal 0.290279305592298 -1.80451994778503e-15 -0.956941965191648
   outer loop
      vertex -6614.53 12000.0 9089.47
      vertex -7205.45 8552.71000000001 8910.22000000001
      vertex -7205.45 12000.0 8910.22
   endloop
endfacet
facet normal 0.290279305592298 -1.80451994778503e-15 -0.956941965191648
   outer loop
      vertex -7205.45 8552.71000000001 8910.22000000001
      vertex -6614.53 12000.0 9089.47
      vertex -6614.53 8552.71000000001 9089.47000000001
   endloop
endfacet
facet normal 0.098023680719277 -6.25388749207184e-16 -0.995184082478335
   outer loop
      vertex -6000.0 12000.0 9150.00000000001
      vertex -6614.53 8552.71000000001 9089.47000000001
      vertex -6614.53 12000.0 9089.47
   endloop
endfacet
facet normal 0.098023680719277 -6.25388749207184e-16 -0.995184082478335
   outer loop
      vertex -6614.53 8552.71000000001 9089.47000000001
      vertex -6000.0 12000.0 9150.00000000001
      vertex -6000.0 8552.71000000001 9150.00000000001
   endloop
endfacet
facet normal 0.098023680719271 5.18589120274916e-17 0.995184082478336
   outer loop
      vertex -6000.0 0.0 2850.0
      vertex -6614.53 3447.29000000001 2910.53
      vertex -6614.53 5.77529135625809e-12 2910.53
   endloop
endfacet
facet normal 0.098023680719271 5.18589120274916e-17 0.995184082478336
   outer loop
      vertex -6614.53 3447.29000000001 2910.53
      vertex -6000.0 0.0 2850.0
      vertex -6000.0 3447.29000000002 2850.0
   endloop
endfacet
facet normal 0.290279305592305 -1.48953145574992e-16 0.956941965191646
   outer loop
      vertex -6614.53 5.77529135625809e-12 2910.53
      vertex -7205.45 3447.29000000001 3089.78000000001
      vertex -7205.45 8.66293703438714e-12 3089.78000000001
   endloop
endfacet
facet normal 0.290279305592305 -1.48953145574992e-16 0.956941965191646
   outer loop
      vertex -7205.45 3447.29000000001 3089.78000000001
      vertex -6614.53 5.77529135625809e-12 2910.53
      vertex -6614.53 3447.29000000001 2910.53
   endloop
endfacet
facet normal 0.471390735542293 4.76771739215498e-17 0.881924472075073
   outer loop
      vertex -7205.45 8.66293703438714e-12 3089.78000000001
      vertex -7750.05 3447.29000000001 3380.87000000001
      vertex -7750.05 1.44382283906452e-11 3380.87000000001
   endloop
endfacet
facet normal 0.471390735542293 4.76771739215498e-17 0.881924472075073
   outer loop
      vertex -7750.05 3447.29000000001 3380.87000000001
      vertex -7205.45 8.66293703438714e-12 3089.78000000001
      vertex -7205.45 3447.29000000001 3089.78000000001
   endloop
endfacet
facet normal 0.634390561108525 -1.62213696124682e-16 0.773012688108294
   outer loop
      vertex -7750.05 1.44382283906452e-11 3380.87000000001
      vertex -8227.39 3447.29000000001 3772.61000000001
      vertex -8227.39 1.44382283906452e-11 3772.61
   endloop
endfacet
facet normal 0.634390561108525 -1.62213696124682e-16 0.773012688108294
   outer loop
      vertex -8227.39 3447.29000000001 3772.61000000001
      vertex -7750.05 1.44382283906452e-11 3380.87000000001
      vertex -7750.05 3447.29000000001 3380.87000000001
   endloop
endfacet
facet normal 0.773012688108294 3.28794587193943e-16 0.634390561108525
   outer loop
      vertex -8227.39 1.44382283906452e-11 3772.61
      vertex -8619.13 3447.29 4249.95
      vertex -8619.13 1.15505827125162e-11 4249.95000000001
   endloop
endfacet
facet normal 0.773012688108294 3.28794587193943e-16 0.634390561108525
   outer loop
      vertex -8619.13 3447.29 4249.95
      vertex -8227.39 1.44382283906452e-11 3772.61
      vertex -8227.39 3447.29000000001 3772.61000000001
   endloop
endfacet
facet normal 0.881924472075072 7.9266757359641e-16 0.471390735542294
   outer loop
      vertex -8619.13 3447.29 4249.95
      vertex -8910.22 1.73258740687743e-11 4794.55000000001
      vertex -8619.13 1.15505827125162e-11 4249.95000000001
   endloop
endfacet
facet normal 0.881924472075072 7.9266757359641e-16 0.471390735542294
   outer loop
      vertex -8910.22 1.73258740687743e-11 4794.55000000001
      vertex -8619.13 3447.29 4249.95
      vertex -8910.22 3447.29 4794.55
   endloop
endfacet
facet normal 0.956941965191646 2.74112907936081e-16 0.290279305592303
   outer loop
      vertex -8910.22 1.73258740687743e-11 4794.55000000001
      vertex -9089.47 3447.29000000001 5385.47
      vertex -9089.47 1.15505827125162e-11 5385.47
   endloop
endfacet
facet normal 0.956941965191646 2.74112907936081e-16 0.290279305592303
   outer loop
      vertex -9089.47 3447.29000000001 5385.47
      vertex -8910.22 1.73258740687743e-11 4794.55000000001
      vertex -8910.22 3447.29 4794.55
   endloop
endfacet
facet normal 0.995184082478336 -1.03527969242381e-17 0.0980236807192691
   outer loop
      vertex -9089.47 1.15505827125162e-11 5385.47
      vertex -9150.0 3447.29000000001 6000.0
      vertex -9150.0 5.77529135625809e-12 6000.0
   endloop
endfacet
facet normal 0.995184082478336 -1.03527969242381e-17 0.0980236807192691
   outer loop
      vertex -9150.0 3447.29000000001 6000.0
      vertex -9089.47 1.15505827125162e-11 5385.47
      vertex -9089.47 3447.29000000001 5385.47
   endloop
endfacet
facet normal 0.995184082478336 -1.02849434438977e-16 -0.0980236807192686
   outer loop
      vertex -9150.0 3447.29000000001 6000.0
      vertex -9089.47 5.77529135625809e-12 6614.53000000001
      vertex -9150.0 5.77529135625809e-12 6000.0
   endloop
endfacet
facet normal 0.995184082478336 -1.02849434438977e-16 -0.0980236807192686
   outer loop
      vertex -9089.47 5.77529135625809e-12 6614.53000000001
      vertex -9150.0 3447.29000000001 6000.0
      vertex -9089.47 3447.29000000001 6614.53
   endloop
endfacet
facet normal 0.956941965191646 -4.85657079016368e-16 -0.290279305592304
   outer loop
      vertex -9089.47 3447.29000000001 6614.53
      vertex -8910.22 1.15505827125162e-11 7205.45
      vertex -9089.47 5.77529135625809e-12 6614.53000000001
   endloop
endfacet
facet normal 0.956941965191646 -4.85657079016368e-16 -0.290279305592304
   outer loop
      vertex -8910.22 1.15505827125162e-11 7205.45
      vertex -9089.47 3447.29000000001 6614.53
      vertex -8910.22 3447.29000000001 7205.45
   endloop
endfacet
facet normal 0.881924472075075 -1.96339687182463e-16 -0.471390735542289
   outer loop
      vertex -8910.22 1.15505827125162e-11 7205.45
      vertex -8619.13 3447.29000000001 7750.05000000001
      vertex -8619.13 5.77529135625809e-12 7750.05000000001
   endloop
endfacet
facet normal 0.881924472075075 -1.96339687182463e-16 -0.471390735542289
   outer loop
      vertex -8619.13 3447.29000000001 7750.05000000001
      vertex -8910.22 1.15505827125162e-11 7205.45
      vertex -8910.22 3447.29000000001 7205.45
   endloop
endfacet
facet normal 0.773012688108294 -1.32138081706616e-16 -0.634390561108525
   outer loop
      vertex -8619.13 3447.29000000001 7750.05000000001
      vertex -8227.39 8.66293703438714e-12 8227.39000000001
      vertex -8619.13 5.77529135625809e-12 7750.05000000001
   endloop
endfacet
facet normal 0.773012688108294 -1.32138081706616e-16 -0.634390561108525
   outer loop
      vertex -8227.39 8.66293703438714e-12 8227.39000000001
      vertex -8619.13 3447.29000000001 7750.05000000001
      vertex -8227.39 3447.29000000001 8227.39000000001
   endloop
endfacet
facet normal 0.634390561108522 -8.11068480623408e-16 -0.773012688108297
   outer loop
      vertex -7750.05 3447.29000000002 8619.13
      vertex -8227.39 8.66293703438714e-12 8227.39000000001
      vertex -8227.39 3447.29000000001 8227.39000000001
   endloop
endfacet
facet normal 0.634390561108522 -8.11068480623408e-16 -0.773012688108297
   outer loop
      vertex -8227.39 8.66293703438714e-12 8227.39000000001
      vertex -7750.05 3447.29000000002 8619.13
      vertex -7750.05 2.88764567812905e-12 8619.13000000001
   endloop
endfacet
facet normal 0.471390735542289 -1.10496726544663e-15 -0.881924472075075
   outer loop
      vertex -7205.45 3447.29000000001 8910.22
      vertex -7750.05 2.88764567812905e-12 8619.13000000001
      vertex -7750.05 3447.29000000002 8619.13
   endloop
endfacet
facet normal 0.471390735542289 -1.10496726544663e-15 -0.881924472075075
   outer loop
      vertex -7750.05 2.88764567812905e-12 8619.13000000001
      vertex -7205.45 3447.29000000001 8910.22
      vertex -7205.45 8.66293703438714e-12 8910.22
   endloop
endfacet
facet normal 0.290279305592308 -2.40216549664634e-15 -0.956941965191645
   outer loop
      vertex -6614.53 3447.29000000001 9089.47
      vertex -7205.45 8.66293703438714e-12 8910.22
      vertex -7205.45 3447.29000000001 8910.22
   endloop
endfacet
facet normal 0.290279305592308 -2.40216549664634e-15 -0.956941965191645
   outer loop
      vertex -7205.45 8.66293703438714e-12 8910.22
      vertex -6614.53 3447.29000000001 9089.47
      vertex -6614.53 5.77529135625809e-12 9089.47000000002
   endloop
endfacet
facet normal 0.0980236807192701 -2.29293375563888e-15 -0.995184082478336
   outer loop
      vertex -6000.0 3447.29000000002 9150.00000000001
      vertex -6614.53 5.77529135625809e-12 9089.47000000002
      vertex -6614.53 3447.29000000001 9089.47
   endloop
endfacet
facet normal 0.0980236807192701 -2.29293375563888e-15 -0.995184082478336
   outer loop
      vertex -6614.53 5.77529135625809e-12 9089.47000000002
      vertex -6000.0 3447.29000000002 9150.00000000001
      vertex -6000.0 0.0 9150.00000000001
   endloop
endfacet
facet normal -0.212565675273498 -0.977146782062716 1.17439854958114e-16
   outer loop
      vertex -12853.889 61.0699999999968 12000.0
      vertex -13690.39 243.039999999998 2.88764567812905e-12
      vertex -12853.889 61.0700000000026 2.88764567812905e-12
   endloop
endfacet
facet normal -0.212565675273498 -0.977146782062716 1.17439854958114e-16
   outer loop
      vertex -13690.39 243.039999999998 2.88764567812905e-12
      vertex -12853.889 61.0699999999968 12000.0
      vertex -13690.39 243.040000000007 12000.0
   endloop
endfacet
facet normal -0.0713376182088671 -0.99745222653934 2.39800028478012e-16
   outer loop
      vertex -12000.0 1.15505827125162e-11 12000.0
      vertex -12853.889 61.0700000000026 2.88764567812905e-12
      vertex -12000.0 0.0 0.0
   endloop
endfacet
facet normal -0.0713376182088671 -0.99745222653934 2.39800028478012e-16
   outer loop
      vertex -12853.889 61.0700000000026 2.88764567812905e-12
      vertex -12000.0 1.15505827125162e-11 12000.0
      vertex -12853.889 61.0699999999968 12000.0
   endloop
endfacet
facet normal -0.349466402215917 -0.936948896003546 2.25285064967296e-16
   outer loop
      vertex -13690.39 243.040000000007 12000.0
      vertex -14492.49 542.21000000001 2.88764567812905e-12
      vertex -13690.39 243.039999999998 2.88764567812905e-12
   endloop
endfacet
facet normal -0.349466402215917 -0.936948896003546 2.25285064967296e-16
   outer loop
      vertex -14492.49 542.21000000001 2.88764567812905e-12
      vertex -13690.39 243.040000000007 12000.0
      vertex -14492.49 542.210000000007 12000.0
   endloop
endfacet
facet normal -0.479250660822684 -0.877678075435989 -1.06314163785759e-16
   outer loop
      vertex -14492.49 542.21000000001 2.88764567812905e-12
      vertex -15243.84 952.480000000008 12000.0
      vertex -15243.84 952.480000000008 2.16573425859679e-12
   endloop
endfacet
facet normal -0.479250660822684 -0.877678075435989 -1.06314163785759e-16
   outer loop
      vertex -15243.84 952.480000000008 12000.0
      vertex -14492.49 542.21000000001 2.88764567812905e-12
      vertex -14492.49 542.210000000007 12000.0
   endloop
endfacet
facet normal -0.599274577754281 -0.80054355312964 1.91659052911318e-16
   outer loop
      vertex -15243.84 952.480000000008 12000.0
      vertex -15929.16 1465.5 7.21911419532262e-12
      vertex -15243.84 952.480000000008 2.16573425859679e-12
   endloop
endfacet
facet normal -0.599274577754281 -0.80054355312964 1.91659052911318e-16
   outer loop
      vertex -15929.16 1465.5 7.21911419532262e-12
      vertex -15243.84 952.480000000008 12000.0
      vertex -15929.16 1465.50000000001 12000.0
   endloop
endfacet
facet normal -0.70710678118655 -0.707106781186545 -4.27874663312203e-16
   outer loop
      vertex -15929.16 1465.50000000001 12000.0
      vertex -16534.5 2070.84000000002 4.33146851719357e-12
      vertex -15929.16 1465.5 7.21911419532262e-12
   endloop
endfacet
facet normal -0.70710678118655 -0.707106781186545 -4.27874663312203e-16
   outer loop
      vertex -16534.5 2070.84000000002 4.33146851719357e-12
      vertex -15929.16 1465.50000000001 12000.0
      vertex -16534.5 2070.84 12000.0
   endloop
endfacet
facet normal -0.800543553129636 -0.599274577754286 -6.48347537611569e-16
   outer loop
      vertex -17047.52 2756.16 12000.0
      vertex -16534.5 2070.84000000002 4.33146851719357e-12
      vertex -16534.5 2070.84 12000.0
   endloop
endfacet
facet normal -0.800543553129636 -0.599274577754286 -6.48347537611569e-16
   outer loop
      vertex -16534.5 2070.84000000002 4.33146851719357e-12
      vertex -17047.52 2756.16 12000.0
      vertex -17047.52 2756.16000000001 4.33146851719357e-12
   endloop
endfacet
facet normal -0.93694889600355 -0.349466402215906 2.51228534113078e-16
   outer loop
      vertex -17457.79 3507.51000000001 12000.0
      vertex -17756.96 4309.61000000001 1.44382283906452e-12
      vertex -17457.79 3507.51 -7.21911419532262e-13
   endloop
endfacet
facet normal -0.93694889600355 -0.349466402215906 2.51228534113078e-16
   outer loop
      vertex -17756.96 4309.61000000001 1.44382283906452e-12
      vertex -17457.79 3507.51000000001 12000.0
      vertex -17756.96 4309.61000000001 12000.0
   endloop
endfacet
facet normal -0.877678075435989 -0.479250660822683 1.15112356004968e-16
   outer loop
      vertex -17457.79 3507.51000000001 12000.0
      vertex -17047.52 2756.16000000001 4.33146851719357e-12
      vertex -17047.52 2756.16 12000.0
   endloop
endfacet
facet normal -0.877678075435989 -0.479250660822683 1.15112356004968e-16
   outer loop
      vertex -17047.52 2756.16000000001 4.33146851719357e-12
      vertex -17457.79 3507.51000000001 12000.0
      vertex -17457.79 3507.51 -7.21911419532262e-13
   endloop
endfacet
facet normal -0.977146782062717 -0.212565675273495 1.02180916764444e-16
   outer loop
      vertex -17756.96 4309.61000000001 12000.0
      vertex -17938.93 5146.11100000001 3.60955709766131e-12
      vertex -17756.96 4309.61000000001 1.44382283906452e-12
   endloop
endfacet
facet normal -0.977146782062717 -0.212565675273495 1.02180916764444e-16
   outer loop
      vertex -17938.93 5146.11100000001 3.60955709766131e-12
      vertex -17756.96 4309.61000000001 12000.0
      vertex -17938.93 5146.11100000001 12000.0
   endloop
endfacet
facet normal -0.997452226539339 -0.0713376182088704 1.70051154932268e-17
   outer loop
      vertex -17938.93 5146.11100000001 12000.0
      vertex -18000.0 6000.00000000001 2.88764567812905e-12
      vertex -17938.93 5146.11100000001 3.60955709766131e-12
   endloop
endfacet
facet normal -0.997452226539339 -0.0713376182088704 1.70051154932268e-17
   outer loop
      vertex -18000.0 6000.00000000001 2.88764567812905e-12
      vertex -17938.93 5146.11100000001 12000.0
      vertex -18000.0 6000.00000000001 12000.0
   endloop
endfacet
facet normal 0.99558010046188 -0.093916258253365 3.38104976517692e-17
   outer loop
      vertex -15241.79 6617.06800000001 1.44382283906452e-12
      vertex -15300.0 6000.00000000001 12000.0
      vertex -15300.0 6000.00000000001 2.88764567812905e-12
   endloop
endfacet
facet normal 0.99558010046188 -0.093916258253365 3.38104976517692e-17
   outer loop
      vertex -15300.0 6000.00000000001 12000.0
      vertex -15241.79 6617.06800000001 1.44382283906452e-12
      vertex -15241.79 6617.06800000002 12000.0
   endloop
endfacet
facet normal 0.960462614622147 -0.278408990359846 1.00165465065106e-16
   outer loop
      vertex -15069.23 7212.37000000001 1.44382283906452e-12
      vertex -15241.79 6617.06800000002 12000.0
      vertex -15241.79 6617.06800000001 1.44382283906452e-12
   endloop
endfacet
facet normal 0.960462614622147 -0.278408990359846 1.00165465065106e-16
   outer loop
      vertex -15241.79 6617.06800000002 12000.0
      vertex -15069.23 7212.37000000001 1.44382283906452e-12
      vertex -15069.23 7212.37000000001 12000.0
   endloop
endfacet
facet normal 0.891455165169018 -0.453108914603849 1.90141209792713e-16
   outer loop
      vertex -14788.39 7764.9 0.0
      vertex -15069.23 7212.37000000001 12000.0
      vertex -15069.23 7212.37000000001 1.44382283906452e-12
   endloop
endfacet
facet normal 0.891455165169018 -0.453108914603849 1.90141209792713e-16
   outer loop
      vertex -15069.23 7212.37000000001 12000.0
      vertex -14788.39 7764.9 0.0
      vertex -14788.39 7764.90000000001 12000.0
   endloop
endfacet
facet normal 0.791007801376344 -0.61180606254087 2.57582794455385e-16
   outer loop
      vertex -14409.19 8255.17000000001 3.60955709766131e-12
      vertex -14788.39 7764.90000000001 12000.0
      vertex -14788.39 7764.9 0.0
   endloop
endfacet
facet normal 0.791007801376344 -0.61180606254087 2.57582794455385e-16
   outer loop
      vertex -14788.39 7764.90000000001 12000.0
      vertex -14409.19 8255.17000000001 3.60955709766131e-12
      vertex -14409.19 8255.17000000001 12000.0
   endloop
endfacet
facet normal 0.66265568633857 -0.748924189329707 8.89669450557563e-17
   outer loop
      vertex -13945.0 8665.89000000002 12000.0
      vertex -14409.19 8255.17000000001 3.60955709766131e-12
      vertex -13945.0 8665.89000000001 2.88764567812905e-12
   endloop
endfacet
facet normal 0.66265568633857 -0.748924189329707 8.89669450557563e-17
   outer loop
      vertex -14409.19 8255.17000000001 3.60955709766131e-12
      vertex -13945.0 8665.89000000002 12000.0
      vertex -14409.19 8255.17000000001 12000.0
   endloop
endfacet
facet normal 0.510932347599966 -0.859620925859758 5.12860520499822e-17
   outer loop
      vertex -13412.2 8982.57000000001 12000.0
      vertex -13945.0 8665.89000000001 2.88764567812905e-12
      vertex -13412.2 8982.57000000001 2.16573425859679e-12
   endloop
endfacet
facet normal 0.510932347599966 -0.859620925859758 5.12860520499822e-17
   outer loop
      vertex -13945.0 8665.89000000001 2.88764567812905e-12
      vertex -13412.2 8982.57000000001 12000.0
      vertex -13945.0 8665.89000000002 12000.0
   endloop
endfacet
facet normal 0.3411693830388 -0.940001836209336 1.13441288325409e-16
   outer loop
      vertex -12829.578 9194.03000000001 12000.0
      vertex -13412.2 8982.57000000001 2.16573425859679e-12
      vertex -12829.578 9194.03000000001 1.44382283906452e-12
   endloop
endfacet
facet normal 0.3411693830388 -0.940001836209336 1.13441288325409e-16
   outer loop
      vertex -13412.2 8982.57000000001 2.16573425859679e-12
      vertex -12829.578 9194.03000000001 12000.0
      vertex -13412.2 8982.57000000001 12000.0
   endloop
endfacet
facet normal 0.159372440455657 -0.987218529619055 2.96977949452024e-16
   outer loop
      vertex -12217.694 9292.81000000001 2.16573425859679e-12
      vertex -12829.578 9194.03000000001 12000.0
      vertex -12829.578 9194.03000000001 1.44382283906452e-12
   endloop
endfacet
facet normal 0.159372440455657 -0.987218529619055 2.96977949452024e-16
   outer loop
      vertex -12829.578 9194.03000000001 12000.0
      vertex -12217.694 9292.81000000001 2.16573425859679e-12
      vertex -12217.694 9292.81000000001 12000.0
   endloop
endfacet
facet normal -0.0280248328455207 -0.999607227236769 6.01374632255456e-16
   outer loop
      vertex -11598.13 9275.44000000002 12000.0
      vertex -12217.694 9292.81000000001 2.16573425859679e-12
      vertex -11598.13 9275.44000000001 0.0
   endloop
endfacet
facet normal -0.0280248328455207 -0.999607227236769 6.01374632255456e-16
   outer loop
      vertex -12217.694 9292.81000000001 2.16573425859679e-12
      vertex -11598.13 9275.44000000002 12000.0
      vertex -12217.694 9292.81000000001 12000.0
   endloop
endfacet
facet normal -0.214452720616377 -0.976734370553342 4.11128223710279e-16
   outer loop
      vertex -10992.74 9142.52000000001 3.60955709766131e-12
      vertex -11598.13 9275.44000000002 12000.0
      vertex -11598.13 9275.44000000001 0.0
   endloop
endfacet
facet normal -0.214452720616377 -0.976734370553342 4.11128223710279e-16
   outer loop
      vertex -11598.13 9275.44000000002 12000.0
      vertex -10992.74 9142.52000000001 3.60955709766131e-12
      vertex -10992.74 9142.52000000001 12000.0
   endloop
endfacet
facet normal -0.393317522853574 -0.919402700788032 5.59352360447366e-17
   outer loop
      vertex -10422.89 8898.74000000001 12000.0
      vertex -10992.74 9142.52000000001 3.60955709766131e-12
      vertex -10422.89 8898.74000000001 7.21911419532262e-13
   endloop
endfacet
facet normal -0.393317522853574 -0.919402700788032 5.59352360447366e-17
   outer loop
      vertex -10992.74 9142.52000000001 3.60955709766131e-12
      vertex -10422.89 8898.74000000001 12000.0
      vertex -10992.74 9142.52000000001 12000.0
   endloop
endfacet
facet normal -0.558287962589851 0.829647244813887 -9.99576543035471e-17
   outer loop
      vertex -10422.89 3101.26000000001 12000.0
      vertex -9908.67 3447.29000000001 2.88764567812905e-12
      vertex -10422.89 3101.26000000001 7.21911419532262e-13
   endloop
endfacet
facet normal -0.558287962589851 0.829647244813887 -9.99576543035471e-17
   outer loop
      vertex -9908.67 3447.29000000001 2.88764567812905e-12
      vertex -10422.89 3101.26000000001 12000.0
      vertex -9908.67 3447.29000000002 12000.0
   endloop
endfacet
facet normal -0.393317522853573 0.919402700788033 1.10798629067365e-16
   outer loop
      vertex -10992.74 2857.48000000001 2.88764567812905e-12
      vertex -10422.89 3101.26000000001 12000.0
      vertex -10422.89 3101.26000000001 7.21911419532262e-13
   endloop
endfacet
facet normal -0.393317522853573 0.919402700788033 1.10798629067365e-16
   outer loop
      vertex -10422.89 3101.26000000001 12000.0
      vertex -10992.74 2857.48000000001 2.88764567812905e-12
      vertex -10992.74 2857.48000000001 12000.0
   endloop
endfacet
facet normal -0.214452720616372 0.976734370553344 8.22304110747013e-16
   outer loop
      vertex -11598.13 2724.56000000002 5.77529135625809e-12
      vertex -10992.74 2857.48000000001 12000.0
      vertex -10992.74 2857.48000000001 2.88764567812905e-12
   endloop
endfacet
facet normal -0.214452720616372 0.976734370553344 8.22304110747013e-16
   outer loop
      vertex -10992.74 2857.48000000001 12000.0
      vertex -11598.13 2724.56000000002 5.77529135625809e-12
      vertex -11598.13 2724.56 12000.0
   endloop
endfacet
facet normal -0.0280248328455183 0.999607227236769 4.81121015928482e-16
   outer loop
      vertex -12217.694 2707.19000000002 12000.0
      vertex -11598.13 2724.56000000002 5.77529135625809e-12
      vertex -12217.694 2707.19000000001 2.88764567812905e-12
   endloop
endfacet
facet normal -0.0280248328455183 0.999607227236769 4.81121015928482e-16
   outer loop
      vertex -11598.13 2724.56000000002 5.77529135625809e-12
      vertex -12217.694 2707.19000000002 12000.0
      vertex -11598.13 2724.56 12000.0
   endloop
endfacet
facet normal 0.159372440455653 0.987218529619055 -4.7511915069887e-16
   outer loop
      vertex -12829.578 2805.97000000001 12000.0
      vertex -12217.694 2707.19000000001 2.88764567812905e-12
      vertex -12829.578 2805.97000000001 1.44382283906452e-12
   endloop
endfacet
facet normal 0.159372440455653 0.987218529619055 -4.7511915069887e-16
   outer loop
      vertex -12217.694 2707.19000000001 2.88764567812905e-12
      vertex -12829.578 2805.97000000001 12000.0
      vertex -12217.694 2707.19000000002 12000.0
   endloop
endfacet
facet normal 0.341169383038798 0.940001836209337 -2.26189986480053e-16
   outer loop
      vertex -13412.2 3017.43000000001 2.16573425859679e-12
      vertex -12829.578 2805.97000000001 12000.0
      vertex -12829.578 2805.97000000001 1.44382283906452e-12
   endloop
endfacet
facet normal 0.341169383038798 0.940001836209337 -2.26189986480053e-16
   outer loop
      vertex -12829.578 2805.97000000001 12000.0
      vertex -13412.2 3017.43000000001 2.16573425859679e-12
      vertex -13412.2 3017.43000000001 12000.0
   endloop
endfacet
facet normal 0.510932347599968 0.859620925859757 -1.03050579846495e-16
   outer loop
      vertex -13945.0 3334.11000000001 12000.0
      vertex -13412.2 3017.43000000001 2.16573425859679e-12
      vertex -13945.0 3334.11000000001 1.44382283906452e-12
   endloop
endfacet
facet normal 0.510932347599968 0.859620925859757 -1.03050579846495e-16
   outer loop
      vertex -13412.2 3017.43000000001 2.16573425859679e-12
      vertex -13945.0 3334.11000000001 12000.0
      vertex -13412.2 3017.43000000001 12000.0
   endloop
endfacet
facet normal 0.662655686338568 0.748924189329709 9.07322995095157e-17
   outer loop
      vertex -14409.19 3744.83000000001 3.60955709766131e-12
      vertex -13945.0 3334.11000000001 12000.0
      vertex -13945.0 3334.11000000001 1.44382283906452e-12
   endloop
endfacet
facet normal 0.662655686338568 0.748924189329709 9.07322995095157e-17
   outer loop
      vertex -13945.0 3334.11000000001 12000.0
      vertex -14409.19 3744.83000000001 3.60955709766131e-12
      vertex -14409.19 3744.83 12000.0
   endloop
endfacet
facet normal 0.791007801376346 0.611806062540867 7.48022529543964e-17
   outer loop
      vertex -14409.19 3744.83000000001 3.60955709766131e-12
      vertex -14788.39 4235.10000000002 12000.0
      vertex -14409.19 3744.83 12000.0
   endloop
endfacet
facet normal 0.791007801376346 0.611806062540867 7.48022529543964e-17
   outer loop
      vertex -14788.39 4235.10000000002 12000.0
      vertex -14409.19 3744.83000000001 3.60955709766131e-12
      vertex -14788.39 4235.10000000001 5.05337993672583e-12
   endloop
endfacet
facet normal 0.891455165169019 0.453108914603847 -1.6341463979054e-16
   outer loop
      vertex -15069.23 4787.63000000001 4.33146851719357e-12
      vertex -14788.39 4235.10000000002 12000.0
      vertex -14788.39 4235.10000000001 5.05337993672583e-12
   endloop
endfacet
facet normal 0.891455165169019 0.453108914603847 -1.6341463979054e-16
   outer loop
      vertex -14788.39 4235.10000000002 12000.0
      vertex -15069.23 4787.63000000001 4.33146851719357e-12
      vertex -15069.23 4787.63000000001 12000.0
   endloop
endfacet
facet normal 0.960462614622147 0.278408990359847 -2.01033097815507e-16
   outer loop
      vertex -15241.79 5382.93200000001 4.33146851719357e-12
      vertex -15069.23 4787.63000000001 12000.0
      vertex -15069.23 4787.63000000001 4.33146851719357e-12
   endloop
endfacet
facet normal 0.960462614622147 0.278408990359847 -2.01033097815507e-16
   outer loop
      vertex -15069.23 4787.63000000001 12000.0
      vertex -15241.79 5382.93200000001 4.33146851719357e-12
      vertex -15241.79 5382.93200000002 12000.0
   endloop
endfacet
facet normal 0.99558010046188 0.0939162582533656 -4.52817017771754e-17
   outer loop
      vertex -15300.0 6000.00000000001 2.88764567812905e-12
      vertex -15241.79 5382.93200000002 12000.0
      vertex -15241.79 5382.93200000001 4.33146851719357e-12
   endloop
endfacet
facet normal 0.99558010046188 0.0939162582533656 -4.52817017771754e-17
   outer loop
      vertex -15241.79 5382.93200000002 12000.0
      vertex -15300.0 6000.00000000001 2.88764567812905e-12
      vertex -15300.0 6000.00000000001 12000.0
   endloop
endfacet
facet normal 1.0 -0.0 -0.0
   outer loop
      vertex 0.0 8552.71000000001 3.60955709766131e-12
      vertex 0.0 12000.0 12000.0
      vertex 0.0 8552.71000000001 12000.0
   endloop
endfacet
facet normal 1.0 -0.0 -0.0
   outer loop
      vertex 0.0 12000.0 12000.0
      vertex 0.0 8552.71000000001 3.60955709766131e-12
      vertex 0.0 12000.0 2.16573425859679e-12
   endloop
endfacet
facet normal -0.997452226539339 0.0713376182088704 3.45169836375864e-17
   outer loop
      vertex -17938.93 6853.88900000001 12000.0
      vertex -18000.0 6000.00000000001 2.88764567812905e-12
      vertex -18000.0 6000.00000000001 12000.0
   endloop
endfacet
facet normal -0.997452226539339 0.0713376182088704 3.45169836375864e-17
   outer loop
      vertex -18000.0 6000.00000000001 2.88764567812905e-12
      vertex -17938.93 6853.88900000001 12000.0
      vertex -17938.93 6853.88900000002 3.60955709766131e-12
   endloop
endfacet
facet normal -0.977146782062717 0.212565675273494 1.02032342816149e-16
   outer loop
      vertex -17756.96 7690.39000000001 12000.0
      vertex -17938.93 6853.88900000002 3.60955709766131e-12
      vertex -17938.93 6853.88900000001 12000.0
   endloop
endfacet
facet normal -0.977146782062717 0.212565675273494 1.02032342816149e-16
   outer loop
      vertex -17938.93 6853.88900000002 3.60955709766131e-12
      vertex -17756.96 7690.39000000001 12000.0
      vertex -17756.96 7690.39000000001 3.60955709766131e-12
   endloop
endfacet
facet normal -0.936948896003549 0.349466402215909 1.96781610203579e-17
   outer loop
      vertex -17457.79 8492.49000000001 12000.0
      vertex -17756.96 7690.39000000001 3.60955709766131e-12
      vertex -17756.96 7690.39000000001 12000.0
   endloop
endfacet
facet normal -0.936948896003549 0.349466402215909 1.96781610203579e-17
   outer loop
      vertex -17756.96 7690.39000000001 3.60955709766131e-12
      vertex -17457.79 8492.49000000001 12000.0
      vertex -17457.79 8492.49000000001 2.16573425859679e-12
   endloop
endfacet
facet normal -0.877678075435991 0.47925066082268 2.97043511886269e-17
   outer loop
      vertex -17047.52 9243.84000000001 12000.0
      vertex -17457.79 8492.49000000001 2.16573425859679e-12
      vertex -17457.79 8492.49000000001 12000.0
   endloop
endfacet
facet normal -0.877678075435991 0.47925066082268 2.97043511886269e-17
   outer loop
      vertex -17457.79 8492.49000000001 2.16573425859679e-12
      vertex -17047.52 9243.84000000001 12000.0
      vertex -17047.52 9243.84000000001 2.88764567812905e-12
   endloop
endfacet
facet normal -0.800543553129637 0.59927457